<?xml version="1.0" encoding="UTF-8" standalone="no"?>
<svg viewBox="0 0 82 90" xmlns="http://www.w3.org/2000/svg">
  <defs></defs>
  <g transform="matrix(0.1, 0, 0, 0.1, 104.890717, 140.257782)">
    <path class="line gray" d="M -821.875 -990.419 L -681.026 -905.666" style="fill: rgb(255, 255, 255); stroke: rgb(204, 204, 204); stroke-width: 3.7531px;"></path>
    <path class="line gray" d="M -502.977 -987.28 L -592.67 -906.559" style="fill: rgb(255, 255, 255); stroke: rgb(204, 204, 204); stroke-width: 3.7531px;"></path>
    <path class="line" d="M -663.145 -992.766 L -637.514 -904.348" style="fill: rgb(255, 255, 255); stroke: rgb(0, 0, 0); stroke-width: 3.7531px;"></path>
    <path class="gray" d="M -833.321 -1098.054 L -879.334 -981.118 L -745.504 -981.118 L -699.491 -1098.054 L -833.321 -1098.054 Z" style="fill: rgb(255, 255, 255); stroke: rgb(204, 204, 204); stroke-width: 3.7531px;"></path>
    <text class="t2-os-box gray" x="-788.794" y="-1020.372" id="trsvg35" style="white-space: pre; fill: rgb(204, 204, 204); font-family: sans-serif; font-size: 52.7844px; font-weight: 700; line-height: 84.455px; perspective-origin: 413.578px 184.766px; text-align: center; text-anchor: middle;"><tspan id="trsvg8" style="font-size: 52.8px; word-spacing: 0px;">OS</tspan></text>
    <path class="line gray" d="M -599.699 -1093.031 L -870.114 -1154.042" style="fill: rgb(255, 255, 255); stroke: rgb(204, 204, 204); stroke-width: 3.7531px;"></path>
    <path class="line" d="M -632.489 -1092.492 L -422.096 -1155.796" style="fill: rgb(255, 255, 255); stroke: rgb(0, 0, 0); stroke-width: 3.7531px;"></path>
    <path class="line gray" d="M -732.516 -1319.483 L -851.586 -1242.953" style="fill: rgb(255, 255, 255); stroke: rgb(204, 204, 204); stroke-width: 3.7531px;"></path>
    <path class="line gray" d="M -948.022 -1319.792 L -837.077 -1242.545" style="fill: rgb(255, 255, 255); stroke: rgb(204, 204, 204); stroke-width: 3.7531px;"></path>
    <path class="line gray" d="M -836.088 -1325.464 L -844.774 -1245.569" style="fill: rgb(255, 255, 255); stroke: rgb(204, 204, 204); stroke-width: 3.7531px;"></path>
    <path class="gray" d="M -727.863 -1377.458 C -739.281 -1377.443 -748.523 -1372.289 -748.523 -1365.935 C -748.523 -1364.564 -748.084 -1363.203 -747.226 -1361.918 C -747.654 -1361.94 -748.083 -1361.952 -748.512 -1361.952 C -759.947 -1361.951 -769.217 -1354.284 -769.217 -1344.826 C -769.217 -1335.368 -759.947 -1327.701 -748.512 -1327.7 C -748.175 -1327.701 -747.838 -1327.708 -747.502 -1327.723 C -747.972 -1326.748 -748.21 -1325.743 -748.21 -1324.734 C -748.211 -1318.369 -738.937 -1313.21 -727.499 -1313.211 C -721.261 -1313.211 -715.356 -1314.776 -711.424 -1317.47 C -707.494 -1314.776 -701.591 -1313.212 -695.356 -1313.211 C -683.917 -1313.21 -674.644 -1318.369 -674.645 -1324.734 C -674.644 -1325.743 -674.883 -1326.748 -675.353 -1327.723 C -675.016 -1327.708 -674.68 -1327.701 -674.343 -1327.7 C -662.907 -1327.701 -653.638 -1335.368 -653.637 -1344.826 C -653.638 -1354.284 -662.908 -1361.951 -674.343 -1361.952 C -674.772 -1361.952 -675.201 -1361.94 -675.629 -1361.918 C -674.77 -1363.203 -674.33 -1364.564 -674.331 -1365.935 C -674.33 -1372.289 -683.572 -1377.444 -694.99 -1377.458 C -695.003 -1377.458 -695.015 -1377.458 -695.028 -1377.458 C -701.443 -1377.457 -707.495 -1375.8 -711.413 -1372.974 C -715.333 -1375.801 -721.387 -1377.458 -727.805 -1377.458 C -727.817 -1377.458 -727.83 -1377.458 -727.842 -1377.458 L -727.863 -1377.458 Z" style="fill: rgb(255, 255, 255); stroke: rgb(204, 204, 204); stroke-width: 3.7531px;"></path>
    <text class="t2-os-cloud gray" x="-710.964" y="-1330.924" id="trsvg36" style="white-space: pre; fill: rgb(204, 204, 204); font-family: sans-serif; font-size: 39.5885px; font-weight: 700; line-height: 63.3416px; perspective-origin: 447.734px 28.1719px; text-align: center; text-anchor: middle;"><tspan id="trsvg9" style="font-size: 39.6px; word-spacing: 0px;">OS</tspan></text>
    <path class="gray" d="M -853.227 -1377.458 C -864.645 -1377.443 -873.887 -1372.289 -873.886 -1365.935 C -873.887 -1364.564 -873.447 -1363.203 -872.589 -1361.918 C -873.017 -1361.94 -873.446 -1361.952 -873.875 -1361.952 C -885.311 -1361.951 -894.58 -1354.284 -894.581 -1344.826 C -894.58 -1335.368 -885.311 -1327.701 -873.875 -1327.7 C -873.538 -1327.701 -873.202 -1327.708 -872.865 -1327.723 C -873.335 -1326.748 -873.574 -1325.743 -873.573 -1324.734 C -873.574 -1318.369 -864.301 -1313.21 -852.862 -1313.211 C -846.625 -1313.211 -840.72 -1314.776 -836.788 -1317.47 C -832.857 -1314.776 -826.955 -1313.212 -820.719 -1313.211 C -809.281 -1313.21 -800.007 -1318.369 -800.008 -1324.734 C -800.008 -1325.743 -800.246 -1326.748 -800.716 -1327.723 C -800.38 -1327.708 -800.043 -1327.701 -799.706 -1327.7 C -788.271 -1327.701 -779.001 -1335.368 -779.001 -1344.826 C -779.001 -1354.284 -788.271 -1361.951 -799.706 -1361.952 C -800.135 -1361.952 -800.564 -1361.94 -800.992 -1361.918 C -800.134 -1363.203 -799.694 -1364.564 -799.694 -1365.935 C -799.693 -1372.289 -808.935 -1377.444 -820.354 -1377.458 C -820.366 -1377.458 -820.379 -1377.458 -820.391 -1377.458 C -826.807 -1377.457 -832.858 -1375.8 -836.777 -1372.974 C -840.697 -1375.801 -846.751 -1377.458 -853.168 -1377.458 C -853.181 -1377.458 -853.193 -1377.458 -853.206 -1377.458 L -853.227 -1377.458 Z" style="fill: rgb(255, 255, 255); stroke: rgb(204, 204, 204); stroke-width: 3.7531px;"></path>
    <text class="t2-os-cloud gray" x="-836.327" y="-1330.924" id="trsvg37" style="white-space: pre; fill: rgb(204, 204, 204); font-family: sans-serif; font-size: 39.5885px; font-weight: 700; line-height: 63.3416px; perspective-origin: 385.062px 28.1719px; text-align: center; text-anchor: middle;"><tspan id="trsvg10" style="font-size: 39.6px; word-spacing: 0px;">OS</tspan></text>
    <path class="gray" d="M -985.188 -1377.458 C -996.606 -1377.443 -1005.848 -1372.289 -1005.847 -1365.935 C -1005.848 -1364.564 -1005.409 -1363.203 -1004.55 -1361.918 C -1004.979 -1361.94 -1005.408 -1361.952 -1005.837 -1361.952 C -1017.272 -1361.951 -1026.542 -1354.284 -1026.542 -1344.826 C -1026.542 -1335.368 -1017.272 -1327.701 -1005.837 -1327.7 C -1005.5 -1327.701 -1005.163 -1327.708 -1004.827 -1327.723 C -1005.297 -1326.748 -1005.535 -1325.743 -1005.535 -1324.734 C -1005.536 -1318.369 -996.262 -1313.21 -984.824 -1313.211 C -978.586 -1313.211 -972.681 -1314.776 -968.749 -1317.47 C -964.819 -1314.776 -958.916 -1313.212 -952.681 -1313.211 C -941.242 -1313.21 -931.969 -1318.369 -931.969 -1324.734 C -931.969 -1325.743 -932.207 -1326.748 -932.678 -1327.723 C -932.341 -1327.708 -932.004 -1327.701 -931.668 -1327.7 C -920.232 -1327.701 -910.963 -1335.368 -910.962 -1344.826 C -910.963 -1354.284 -920.232 -1361.951 -931.668 -1361.952 C -932.097 -1361.952 -932.526 -1361.94 -932.954 -1361.918 C -932.095 -1363.203 -931.655 -1364.564 -931.655 -1365.935 C -931.655 -1372.289 -940.897 -1377.444 -952.315 -1377.458 C -952.327 -1377.458 -952.34 -1377.458 -952.352 -1377.458 C -958.768 -1377.457 -964.82 -1375.8 -968.738 -1372.974 C -972.658 -1375.801 -978.712 -1377.458 -985.13 -1377.458 C -985.142 -1377.458 -985.155 -1377.458 -985.167 -1377.458 L -985.188 -1377.458 Z" style="fill: rgb(255, 255, 255); stroke: rgb(204, 204, 204); stroke-width: 3.7531px;"></path>
    <text class="t2-os-cloud gray" x="-968.288" y="-1330.924" id="trsvg38" style="white-space: pre; fill: rgb(204, 204, 204); font-family: sans-serif; font-size: 39.5885px; font-weight: 700; line-height: 63.3416px; perspective-origin: 319.078px 28.1719px; text-align: center; text-anchor: middle;"><tspan id="trsvg11" style="font-size: 39.6px; word-spacing: 0px;">OS</tspan></text>
    <path class="gray" d="M -907.825 -1250.481 L -962.267 -1146.518 C -884.252 -1146.518 -800.303 -1146.518 -732.15 -1146.518 L -786.588 -1250.481 L -907.825 -1250.481 Z" style="fill: rgb(255, 255, 255); stroke: rgb(204, 204, 204); stroke-width: 3.7531px;"></path>
    <text class="t2-hypervisor gray" x="-848.313" y="-1204.53" id="trsvg39" style="white-space: pre; fill: rgb(204, 204, 204); font-family: sans-serif; font-size: 30.7909px; font-weight: 700; line-height: 49.2654px; perspective-origin: 391.266px 90.0469px; text-align: center; text-anchor: middle;"><tspan id="trsvg12" style="font-size: 30.8px; word-spacing: 0px;">HYPER</tspan></text>
    <text class="t2-hypervisor gray" x="-848.313" y="-1170.458" id="trsvg40" style="white-space: pre; fill: rgb(204, 204, 204); font-family: sans-serif; font-size: 30.7909px; font-weight: 700; line-height: 49.2654px; perspective-origin: 388.703px 107.078px; text-align: center; text-anchor: middle;"><tspan id="trsvg13" style="font-size: 30.8px; word-spacing: 0px;">VISOR</tspan></text>
    <path class="line gray" d="M -332.787 -1320.502 L -457.636 -1244.558" style="fill: rgb(255, 255, 255); stroke: rgb(204, 204, 204); stroke-width: 3.7531px;"></path>
    <path class="line gray" d="M -562.223 -1320.502 L -437.373 -1244.558" style="fill: rgb(255, 255, 255); stroke: rgb(204, 204, 204); stroke-width: 3.7531px;"></path>
    <path class="line" d="M -447.502 -1339.608 L -447.502 -1220.103" style="fill: rgb(255, 255, 255); stroke: rgb(0, 0, 0); stroke-width: 3.7531px;"></path>
    <path d="M -463.941 -1377.458 C -475.359 -1377.443 -484.601 -1372.289 -484.6 -1365.935 C -484.601 -1364.564 -484.161 -1363.203 -483.303 -1361.918 C -483.731 -1361.94 -484.16 -1361.952 -484.589 -1361.952 C -496.025 -1361.951 -505.294 -1354.284 -505.295 -1344.826 C -505.294 -1335.368 -496.025 -1327.701 -484.589 -1327.7 C -484.252 -1327.701 -483.916 -1327.708 -483.579 -1327.723 C -484.049 -1326.748 -484.288 -1325.743 -484.287 -1324.734 C -484.288 -1318.369 -475.015 -1313.21 -463.576 -1313.211 C -457.339 -1313.211 -451.434 -1314.776 -447.502 -1317.47 C -443.571 -1314.776 -437.669 -1313.212 -431.433 -1313.211 C -419.995 -1313.21 -410.721 -1318.369 -410.722 -1324.734 C -410.722 -1325.743 -410.96 -1326.748 -411.43 -1327.723 C -411.094 -1327.708 -410.757 -1327.701 -410.42 -1327.7 C -398.985 -1327.701 -389.715 -1335.368 -389.715 -1344.826 C -389.715 -1354.284 -398.985 -1361.951 -410.42 -1361.952 C -410.849 -1361.952 -411.278 -1361.94 -411.706 -1361.918 C -410.848 -1363.203 -410.408 -1364.564 -410.408 -1365.935 C -410.407 -1372.289 -419.649 -1377.444 -431.067 -1377.458 C -431.08 -1377.458 -431.092 -1377.458 -431.104 -1377.458 C -437.52 -1377.457 -443.572 -1375.8 -447.49 -1372.974 C -451.41 -1375.801 -457.464 -1377.458 -463.882 -1377.458 C -463.894 -1377.458 -463.906 -1377.458 -463.919 -1377.458 L -463.941 -1377.458 Z" style="fill: rgb(255, 255, 255); stroke: rgb(0, 0, 0); stroke-width: 3.7531px;"></path>
    <text class="t2-os-cloud" x="-447.041" y="-1330.924" id="trsvg41" style="white-space: pre; font-family: sans-serif; font-size: 39.5885px; font-weight: 700; line-height: 63.3416px; perspective-origin: 579.703px 28.1719px; text-align: center; text-anchor: middle;"><tspan id="trsvg14" style="font-size: 39.6px; word-spacing: 0px;">OS</tspan></text>
    <path class="gray" d="M -325.381 -1377.458 C -336.799 -1377.443 -346.041 -1372.289 -346.04 -1365.935 C -346.041 -1364.564 -345.602 -1363.203 -344.743 -1361.918 C -345.171 -1361.94 -345.6 -1361.952 -346.03 -1361.952 C -357.465 -1361.951 -366.735 -1354.284 -366.735 -1344.826 C -366.735 -1335.368 -357.465 -1327.701 -346.03 -1327.7 C -345.693 -1327.701 -345.356 -1327.708 -345.02 -1327.723 C -345.49 -1326.748 -345.728 -1325.743 -345.728 -1324.734 C -345.729 -1318.369 -336.455 -1313.21 -325.017 -1313.211 C -318.779 -1313.211 -312.874 -1314.776 -308.942 -1317.47 C -305.012 -1314.776 -299.109 -1313.212 -292.874 -1313.211 C -281.435 -1313.21 -272.162 -1318.369 -272.162 -1324.734 C -272.162 -1325.743 -272.4 -1326.748 -272.871 -1327.723 C -272.534 -1327.708 -272.197 -1327.701 -271.861 -1327.7 C -260.425 -1327.701 -251.156 -1335.368 -251.155 -1344.826 C -251.156 -1354.284 -260.425 -1361.951 -271.861 -1361.952 C -272.29 -1361.952 -272.719 -1361.94 -273.147 -1361.918 C -272.288 -1363.203 -271.848 -1364.564 -271.848 -1365.935 C -271.848 -1372.289 -281.09 -1377.444 -292.508 -1377.458 C -292.52 -1377.458 -292.533 -1377.458 -292.545 -1377.458 C -298.96 -1377.457 -305.012 -1375.8 -308.931 -1372.974 C -312.851 -1375.801 -318.905 -1377.458 -325.322 -1377.458 C -325.335 -1377.458 -325.347 -1377.458 -325.36 -1377.458 L -325.381 -1377.458 Z" style="fill: rgb(255, 255, 255); stroke: rgb(204, 204, 204); stroke-width: 3.7531px;"></path>
    <text class="t2-os-cloud gray" x="-308.481" y="-1330.924" id="trsvg42" style="white-space: pre; fill: rgb(204, 204, 204); font-family: sans-serif; font-size: 39.5885px; font-weight: 700; line-height: 63.3416px; perspective-origin: 648.984px 28.1719px; text-align: center; text-anchor: middle;"><tspan id="trsvg15" style="font-size: 39.6px; word-spacing: 0px;">OS</tspan></text>
    <path class="gray" d="M -595.902 -1377.458 C -607.32 -1377.443 -616.562 -1372.289 -616.561 -1365.935 C -616.562 -1364.564 -616.123 -1363.203 -615.264 -1361.918 C -615.692 -1361.94 -616.121 -1361.952 -616.55 -1361.952 C -627.986 -1361.951 -637.256 -1354.284 -637.256 -1344.826 C -637.256 -1335.368 -627.986 -1327.701 -616.55 -1327.7 C -616.214 -1327.701 -615.877 -1327.708 -615.54 -1327.723 C -616.011 -1326.748 -616.249 -1325.743 -616.249 -1324.734 C -616.249 -1318.369 -606.976 -1313.21 -595.537 -1313.211 C -589.3 -1313.211 -583.395 -1314.776 -579.463 -1317.47 C -575.532 -1314.776 -569.63 -1313.212 -563.395 -1313.211 C -551.956 -1313.21 -542.682 -1318.369 -542.683 -1324.734 C -542.683 -1325.743 -542.921 -1326.748 -543.391 -1327.723 C -543.055 -1327.708 -542.718 -1327.701 -542.381 -1327.7 C -530.946 -1327.701 -521.677 -1335.368 -521.676 -1344.826 C -521.677 -1354.284 -530.946 -1361.951 -542.381 -1361.952 C -542.811 -1361.952 -543.24 -1361.94 -543.668 -1361.918 C -542.809 -1363.203 -542.369 -1364.564 -542.369 -1365.935 C -542.368 -1372.289 -551.61 -1377.444 -563.029 -1377.458 C -563.041 -1377.458 -563.053 -1377.458 -563.066 -1377.458 C -569.481 -1377.457 -575.533 -1375.8 -579.451 -1372.974 C -583.371 -1375.801 -589.425 -1377.458 -595.843 -1377.458 C -595.855 -1377.458 -595.868 -1377.458 -595.88 -1377.458 L -595.902 -1377.458 Z" style="fill: rgb(255, 255, 255); stroke: rgb(204, 204, 204); stroke-width: 3.7531px;"></path>
    <text class="t2-os-cloud gray" x="-579.002" y="-1330.924" id="trsvg43" style="white-space: pre; fill: rgb(204, 204, 204); font-family: sans-serif; font-size: 39.5885px; font-weight: 700; line-height: 63.3416px; perspective-origin: 513.719px 28.1719px; text-align: center; text-anchor: middle;"><tspan id="trsvg16" style="font-size: 39.6px; word-spacing: 0px;">OS</tspan></text>
    <path d="M -508.121 -1250.481 L -562.563 -1146.518 C -484.548 -1146.518 -400.6 -1146.518 -332.446 -1146.518 L -386.884 -1250.481 L -508.121 -1250.481 Z" style="fill: rgb(255, 255, 255); stroke: rgb(0, 0, 0); stroke-width: 3.7531px;"></path>
    <text class="t2-hypervisor" x="-448.61" y="-1204.53" id="trsvg44" style="white-space: pre; font-family: sans-serif; font-size: 30.7909px; font-weight: 700; line-height: 49.2654px; perspective-origin: 591.125px 90.0469px; text-align: center; text-anchor: middle;"><tspan id="trsvg17" style="font-size: 30.8px; word-spacing: 0px;">HYPER</tspan></text>
    <text class="t2-hypervisor" x="-448.61" y="-1170.458" id="trsvg45" style="white-space: pre; font-family: sans-serif; font-size: 30.7909px; font-weight: 700; line-height: 49.2654px; perspective-origin: 588.562px 107.078px; text-align: center; text-anchor: middle;"><tspan id="trsvg18" style="font-size: 30.8px; word-spacing: 0px;">VISOR</tspan></text>
    <path d="M -681.566 -1098.054 L -727.578 -981.118 L -593.748 -981.118 L -547.736 -1098.054 L -681.566 -1098.054 Z" style="fill: rgb(255, 255, 255); stroke: rgb(0, 0, 0); stroke-width: 3.7531px;"></path>
    <text class="t2-os-box" x="-637.039" y="-1020.372" id="trsvg46" style="white-space: pre; font-family: sans-serif; font-size: 52.7844px; font-weight: 700; line-height: 84.455px; perspective-origin: 489.453px 184.766px; text-align: center; text-anchor: middle;"><tspan id="trsvg19" style="font-size: 52.8px; word-spacing: 0px;">OS</tspan></text>
    <path class="gray" d="M -529.81 -1098.054 L -575.823 -981.118 L -441.993 -981.118 L -395.98 -1098.054 L -529.81 -1098.054 Z" style="fill: rgb(255, 255, 255); stroke: rgb(204, 204, 204); stroke-width: 3.7531px;"></path>
    <text class="t2-os-box gray" x="-485.283" y="-1020.372" id="trsvg47" style="white-space: pre; fill: rgb(204, 204, 204); font-family: sans-serif; font-size: 52.7844px; font-weight: 700; line-height: 84.455px; perspective-origin: 565.328px 184.766px; text-align: center; text-anchor: middle;"><tspan id="trsvg20" style="font-size: 52.8px; word-spacing: 0px;">OS</tspan></text>
    <path d="M -733.294 -919.383 L -821.42 -834.781 L -733.294 -750.178 L -556.898 -750.178 L -468.765 -834.781 L -556.898 -919.383 L -733.294 -919.383 Z" style="fill: rgb(255, 255, 255); stroke: rgb(0, 0, 0); stroke-width: 3.7531px;"></path>
    <text class="hardware-label" x="-645.38" y="-844.169" id="trsvg48" style="white-space: pre; font-family: sans-serif; font-size: 57.1832px; font-weight: 700; line-height: 91.4931px; perspective-origin: 507.531px 274.188px; text-align: center; text-anchor: middle;"><tspan id="trsvg21" style="font-size: 57.2px; word-spacing: 0px;">HARD</tspan></text>
    <text class="hardware-label" x="-645.38" y="-783.705" id="trsvg49" style="white-space: pre; font-family: sans-serif; font-size: 57.1832px; font-weight: 700; line-height: 91.4931px; perspective-origin: 509.125px 304.422px; text-align: center; text-anchor: middle;"><tspan id="trsvg22" style="font-size: 57.2px; word-spacing: 0px;">WARE</tspan></text>
    <text class="type-label" x="-641.845" y="-640.434" id="trsvg53" style="white-space: pre; font-family: sans-serif; font-size: 79.1767px; font-weight: 700; line-height: 126.683px; perspective-origin: 536.203px 377.375px; text-align: center; text-anchor: middle;"><tspan id="trsvg26" style="font-size: 79.2px; word-spacing: 0px;">TYPE 2</tspan></text>
    <text class="type-sublabel" x="-641.845" y="-581.457" id="trsvg54" style="white-space: pre; font-family: sans-serif; font-size: 39.5885px; font-style: italic; font-weight: 700; line-height: 63.3416px; perspective-origin: 500.438px 402.906px; text-align: center; text-anchor: middle;"><tspan id="trsvg27" style="font-size: 39.6px; word-spacing: 0px;">hosted</tspan></text>
  </g>
</svg>