<?xml version="1.0" encoding="UTF-8" standalone="no"?>
<svg viewBox="0 0 55 90" xmlns="http://www.w3.org/2000/svg">
  <defs></defs>
  <g transform="matrix(0.1, 0, 0, 0.1, 2.740417, 1.748901)">
    <path class="line gray" d="M 405.19634,130.19483 231.91509,235.59934" style="fill: rgb(255, 255, 255); stroke: rgb(204, 204, 204); stroke-width: 3.7531px;"></path>
    <path class="line gray" d="M 86.757498,130.19483 260.03875,235.59934" style="fill: rgb(255, 255, 255); stroke: rgb(204, 204, 204); stroke-width: 3.7531px;"></path>
    <path class="line" d="M 245.97693,121.52958 V 498.60981" style="fill: rgb(255, 255, 255); stroke: rgb(0, 0, 0); stroke-width: 3.7531px;"></path>
    <path d="M 153.90365,229.16169 71.208742,361.40656 c 118.500858,0 246.014978,0 349.536508,0 L 338.05677,229.16169 Z" style="fill: rgb(255, 255, 255); stroke: rgb(0, 0, 0); stroke-width: 3.7531px;"></path>
    <text class="t1-hypervisor" x="244.24042" y="288.94446" id="trsvg28" style="white-space: pre; font-family: sans-serif; font-size: 48.3858px; font-weight: 700; line-height: 77.4173px; perspective-origin: 163.781px 149.75px; text-align: center; text-anchor: middle;"><tspan id="trsvg1">HYPER</tspan></text>
    <text class="t1-hypervisor" x="244.24042" y="336.2121" id="trsvg29" style="white-space: pre; font-family: sans-serif; font-size: 48.3858px; font-weight: 700; line-height: 77.4173px; perspective-origin: 159.75px 173.391px; text-align: center; text-anchor: middle;"><tspan id="trsvg2">VISOR</tspan></text>
    <path d="m 157.77604,416.61259 -88.126719,84.60216 88.126719,84.60223 h 176.39523 l 88.13318,-84.60223 -88.13318,-84.60216 z" style="fill: rgb(255, 255, 255); stroke: rgb(0, 0, 0); stroke-width: 3.7531px;"></path>
    <text class="hardware-label" x="245.69023" y="491.82626" id="trsvg30" style="white-space: pre; font-family: sans-serif; font-size: 57.1832px; font-weight: 700; line-height: 91.4931px; perspective-origin: 164.141px 252.516px; text-align: center; text-anchor: middle;"><tspan id="trsvg3">HARD</tspan></text>
    <text class="hardware-label" x="245.69023" y="552.29004" id="trsvg31" style="white-space: pre; font-family: sans-serif; font-size: 57.1832px; font-weight: 700; line-height: 91.4931px; perspective-origin: 165.734px 282.75px; text-align: center; text-anchor: middle;"><tspan id="trsvg4">WARE</tspan></text>
    <path d="m 227.24313,19.503778 a 23.667435,21.805988 0 0 0 -23.61225,21.807465 23.667435,21.805988 0 0 0 1.48316,7.601859 23.667435,32.411247 0 0 0 -1.47,-0.06358 23.667435,32.411247 0 0 0 -23.66499,32.409875 23.667435,32.411247 0 0 0 23.66499,32.409893 23.667435,32.411247 0 0 0 1.15349,-0.0436 23.667435,21.805988 0 0 0 -0.81073,5.65589 23.667435,21.805988 0 0 0 23.67163,21.80747 23.667435,21.805988 0 0 0 18.37166,-8.0601 23.667435,21.805988 0 0 0 18.36507,8.0601 23.667435,21.805988 0 0 0 23.6716,-21.80747 23.667435,21.805988 0 0 0 -0.81072,-5.65589 23.667435,32.411247 0 0 0 1.15347,0.0436 23.667435,32.411247 0 0 0 23.66497,-32.409893 23.667435,32.411247 0 0 0 -23.66497,-32.409875 23.667435,32.411247 0 0 0 -1.46998,0.06358 23.667435,21.805988 0 0 0 1.48316,-7.601859 23.667435,21.805988 0 0 0 -23.61225,-21.807465 23.667435,21.805988 0 0 0 -0.0524,0 23.667435,21.805988 0 0 0 -18.72761,8.486956 23.667435,21.805988 0 0 0 -18.73426,-8.486956 23.667435,21.805988 0 0 0 -0.0524,0 z" style="fill: rgb(255, 255, 255); stroke: rgb(0, 0, 0); stroke-width: 3.7531px;"></path>
    <text class="t1-os" x="246.59378" y="97.909508" id="trsvg32" style="white-space: pre; font-family: sans-serif; font-size: 43.9872px; font-weight: 700; line-height: 70.3795px; perspective-origin: 139.172px 54.2344px; text-align: center; text-anchor: middle;"><tspan id="trsvg5">OS</tspan></text>
    <path class="gray" d="m 49.095181,19.503778 a 23.667435,21.805988 0 0 0 -23.612248,21.807465 23.667435,21.805988 0 0 0 1.483162,7.601859 23.667435,32.411247 0 0 0 -1.469993,-0.06358 23.667435,32.411247 0 0 0 -23.664992,32.409875 23.667435,32.411247 0 0 0 23.664992,32.409893 23.667435,32.411247 0 0 0 1.153487,-0.0436 23.667435,21.805988 0 0 0 -0.810722,5.65589 23.667435,21.805988 0 0 0 23.671613,21.80747 23.667435,21.805988 0 0 0 18.371676,-8.0601 23.667435,21.805988 0 0 0 18.365069,8.0601 23.667435,21.805988 0 0 0 23.671585,-21.80747 23.667435,21.805988 0 0 0 -0.81072,-5.65589 23.667435,32.411247 0 0 0 1.15348,0.0436 23.667435,32.411247 0 0 0 23.66497,-32.409893 23.667435,32.411247 0 0 0 -23.66497,-32.409875 23.667435,32.411247 0 0 0 -1.46999,0.06358 23.667435,21.805988 0 0 0 1.48316,-7.601859 23.667435,21.805988 0 0 0 -23.612241,-21.807465 23.667435,21.805988 0 0 0 -0.05237,0 23.667435,21.805988 0 0 0 -18.727611,8.486956 23.667435,21.805988 0 0 0 -18.734257,-8.486956 23.667435,21.805988 0 0 0 -0.05237,0 z" style="fill: rgb(255, 255, 255); stroke: rgb(204, 204, 204); stroke-width: 3.7531px;"></path>
    <text class="t1-os gray" x="68.39431" y="96.308311" id="trsvg33" style="white-space: pre; fill: rgb(204, 204, 204); font-family: sans-serif; font-size: 43.9872px; font-weight: 700; line-height: 70.3795px; perspective-origin: 50.0781px 53.4375px; text-align: center; text-anchor: middle;"><tspan id="trsvg6">OS</tspan></text>
    <path class="gray" d="m 405.39099,19.503778 a 23.667435,21.805988 0 0 0 -23.61223,21.807465 23.667435,21.805988 0 0 0 1.48316,7.601859 23.667435,32.411247 0 0 0 -1.47,-0.06358 23.667435,32.411247 0 0 0 -23.66499,32.409875 23.667435,32.411247 0 0 0 23.66499,32.409893 23.667435,32.411247 0 0 0 1.15348,-0.0436 23.667435,21.805988 0 0 0 -0.81072,5.65589 23.667435,21.805988 0 0 0 23.67161,21.80747 23.667435,21.805988 0 0 0 18.37168,-8.0601 23.667435,21.805988 0 0 0 18.36507,8.0601 23.667435,21.805988 0 0 0 23.67158,-21.80747 23.667435,21.805988 0 0 0 -0.81072,-5.65589 23.667435,32.411247 0 0 0 1.15349,0.0436 23.667435,32.411247 0 0 0 23.66497,-32.409893 23.667435,32.411247 0 0 0 -23.66497,-32.409875 23.667435,32.411247 0 0 0 -1.46998,0.06358 23.667435,21.805988 0 0 0 1.48316,-7.601859 23.667435,21.805988 0 0 0 -23.61226,-21.807465 23.667435,21.805988 0 0 0 -0.0524,0 23.667435,21.805988 0 0 0 -18.72761,8.486956 23.667435,21.805988 0 0 0 -18.73426,-8.486956 23.667435,21.805988 0 0 0 -0.0524,0 z" style="fill: rgb(255, 255, 255); stroke: rgb(204, 204, 204); stroke-width: 3.7531px;"></path>
    <text class="t1-os gray" x="424.69012" y="96.308311" id="trsvg34" style="white-space: pre; fill: rgb(204, 204, 204); font-family: sans-serif; font-size: 43.9872px; font-weight: 700; line-height: 70.3795px; perspective-origin: 228.219px 53.4375px; text-align: center; text-anchor: middle;"><tspan id="trsvg7">OS</tspan></text>
    <text class="type-label" x="248.50923" y="698.59119" id="trsvg50" style="white-space: pre; font-family: sans-serif; font-size: 79.1767px; font-weight: 700; line-height: 126.683px; perspective-origin: 192.453px 357.219px; text-align: center; text-anchor: middle;"><tspan id="trsvg23">TYPE 1</tspan></text>
    <text class="type-sublabel" x="248.50923" y="758.71692" id="trsvg51" style="white-space: pre; font-family: sans-serif; font-size: 39.5885px; font-style: italic; font-weight: 700; line-height: 63.3416px; perspective-origin: 152.859px 383.312px; text-align: center; text-anchor: middle;"><tspan id="trsvg24">native</tspan></text>
    <text class="type-baremetal" x="248.50923" y="799.00275" id="trsvg52" style="white-space: pre; font-family: sans-serif; font-size: 30.7909px; font-style: italic; font-weight: 700; line-height: 49.2654px; perspective-origin: 167.859px 402.141px; text-align: center; text-anchor: middle;"><tspan id="trsvg25">(bare metal)</tspan></text>
  </g>
</svg>