<?xml version="1.0" encoding="windows-1252" standalone="no"?>
<svg xmlns="http://www.w3.org/2000/svg" xmlns:xlink="http://www.w3.org/1999/xlink" contentStyleType="text/css" height="309px" preserveAspectRatio="none" style="width:436px;height:309px;" version="1.1" viewBox="0 0 436 309" width="436px" zoomAndPan="magnify"><defs/><g><rect fill="none" height="309" style="stroke:none;stroke-width:1.0;" width="436" x="0" y="0"/><!--entity ucla--><g id="elem_ucla"><rect fill="#282828" height="52.5938" rx="35" ry="35" style="stroke:#FFB000;stroke-width:1.0;" width="57" x="126" y="235"/><text fill="#FFB000" font-family="Verdana" font-size="14" lengthAdjust="spacing" textLength="21" x="144" y="257.9951">1#</text><text fill="#FFB000" font-family="Verdana" font-size="14" lengthAdjust="spacing" textLength="37" x="136" y="274.292">UCLA</text></g><!--entity sri--><g id="elem_sri"><rect fill="#282828" height="52.5938" rx="35" ry="35" style="stroke:#FFB000;stroke-width:1.0;" width="47" x="221" y="117"/><text fill="#FFB000" font-family="Verdana" font-size="14" lengthAdjust="spacing" textLength="20" x="235" y="139.9951">2#</text><text fill="#FFB000" font-family="Verdana" font-size="14" lengthAdjust="spacing" textLength="23" x="235" y="156.292">SRI</text></g><!--entity ucsb--><g id="elem_ucsb"><rect fill="#282828" height="52.5938" rx="35" ry="35" style="stroke:#FFB000;stroke-width:1.0;" width="62" x="123.5" y="117"/><text fill="#FFB000" font-family="Verdana" font-size="14" lengthAdjust="spacing" textLength="21" x="137.5" y="139.9951">3#</text><text fill="#FFB000" font-family="Verdana" font-size="14" lengthAdjust="spacing" textLength="38" x="137.5" y="156.292">UCSB</text></g><!--entity utah--><g id="elem_utah"><rect fill="#282828" height="52.5938" rx="35" ry="35" style="stroke:#FFB000;stroke-width:1.0;" width="62" x="328.5" y="117"/><text fill="#FFB000" font-family="Verdana" font-size="14" lengthAdjust="spacing" textLength="20" x="350.5" y="139.9951">4#</text><text fill="#FFB000" font-family="Verdana" font-size="14" lengthAdjust="spacing" textLength="38" x="342.5" y="156.292">UTAH</text></g><!--entity Sigma 7--><g id="elem_Sigma 7"><polygon fill="#282828" points="218,248.5,228,238.5,315,238.5,315,274.7969,305,284.7969,218,284.7969,218,248.5" style="stroke:#FFB000;stroke-width:1.0;"/><line style="stroke:#FFB000;stroke-width:1.0;" x1="305" x2="315" y1="248.5" y2="238.5"/><line style="stroke:#FFB000;stroke-width:1.0;" x1="218" x2="305" y1="248.5" y2="248.5"/><line style="stroke:#FFB000;stroke-width:1.0;" x1="305" x2="305" y1="248.5" y2="284.7969"/><text fill="#FFB000" font-family="Verdana" font-size="14" lengthAdjust="spacing" textLength="44" x="233" y="271.4951">Sigma</text><text fill="#FFB000" font-family="Verdana" font-size="14" lengthAdjust="spacing" textLength="4" x="277" y="271.4951"> </text><text fill="#FFB000" font-family="Verdana" font-size="14" lengthAdjust="spacing" textLength="9" x="281" y="271.4951">7</text></g><!--entity 940--><g id="elem_940"><polygon fill="#282828" points="211.5,21,221.5,11,277.5,11,277.5,47.2969,267.5,57.2969,211.5,57.2969,211.5,21" style="stroke:#FFB000;stroke-width:1.0;"/><line style="stroke:#FFB000;stroke-width:1.0;" x1="267.5" x2="277.5" y1="21" y2="11"/><line style="stroke:#FFB000;stroke-width:1.0;" x1="211.5" x2="267.5" y1="21" y2="21"/><line style="stroke:#FFB000;stroke-width:1.0;" x1="267.5" x2="267.5" y1="21" y2="57.2969"/><text fill="#FFB000" font-family="Verdana" font-size="14" lengthAdjust="spacing" textLength="26" x="226.5" y="43.9951">940</text></g><!--entity 360--><g id="elem_360"><polygon fill="#282828" points="21,130.5,31,120.5,88,120.5,88,156.7969,78,166.7969,21,166.7969,21,130.5" style="stroke:#FFB000;stroke-width:1.0;"/><line style="stroke:#FFB000;stroke-width:1.0;" x1="78" x2="88" y1="130.5" y2="120.5"/><line style="stroke:#FFB000;stroke-width:1.0;" x1="21" x2="78" y1="130.5" y2="130.5"/><line style="stroke:#FFB000;stroke-width:1.0;" x1="78" x2="78" y1="130.5" y2="166.7969"/><text fill="#FFB000" font-family="Verdana" font-size="14" lengthAdjust="spacing" textLength="27" x="36" y="153.4951">360</text></g><!--entity POP\n 10--><g id="elem_POP\n 10"><polygon fill="#282828" points="350,240,360,230,419,230,419,282.5938,409,292.5938,350,292.5938,350,240" style="stroke:#FFB000;stroke-width:1.0;"/><line style="stroke:#FFB000;stroke-width:1.0;" x1="409" x2="419" y1="240" y2="230"/><line style="stroke:#FFB000;stroke-width:1.0;" x1="350" x2="409" y1="240" y2="240"/><line style="stroke:#FFB000;stroke-width:1.0;" x1="409" x2="409" y1="240" y2="292.5938"/><text fill="#FFB000" font-family="Verdana" font-size="14" lengthAdjust="spacing" textLength="29" x="365" y="262.9951">POP</text><text fill="#FFB000" font-family="Verdana" font-size="14" lengthAdjust="spacing" textLength="4" x="365" y="279.292"> </text><text fill="#FFB000" font-family="Verdana" font-size="14" lengthAdjust="spacing" textLength="18" x="369" y="279.292">10</text></g><!--link ucla to Sigma 7--><g id="link_ucla_Sigma 7"><path codeLine="15" d="M183.375,261.5 C194.848,261.5 206.321,261.5 217.794,261.5 " fill="none" id="ucla-Sigma 7" style="stroke:#FFB000;stroke-width:1.0;"/></g><!--link sri to ucla--><g id="link_sri_ucla"><path codeLine="16" d="M224.526,170.244 C209.612,189.467 189.319,215.622 174.418,234.8278 " fill="none" id="sri-ucla" style="stroke:#FFB000;stroke-width:1.0;"/></g><!--link 940 to sri--><g id="link_940_sri"><path codeLine="17" d="M244.5,57.014 C244.5,74.336 244.5,98.51 244.5,116.733 " fill="none" id="940-sri" style="stroke:#FFB000;stroke-width:1.0;"/></g><!--link ucsb to sri--><g id="link_ucsb_sri"><path codeLine="18" d="M185.789,143.5 C197.409,143.5 209.029,143.5 220.649,143.5 " fill="none" id="ucsb-sri" style="stroke:#FFB000;stroke-width:1.0;"/></g><!--link ucsb to ucla--><g id="link_ucsb_ucla"><path codeLine="19" d="M154.5,170.244 C154.5,189.467 154.5,215.622 154.5,234.8278 " fill="none" id="ucsb-ucla" style="stroke:#FFB000;stroke-width:1.0;"/></g><!--link 360 to ucsb--><g id="link_360_ucsb"><path codeLine="20" d="M88.0938,143.5 C99.8532,143.5 111.6126,143.5 123.372,143.5 " fill="none" id="360-ucsb" style="stroke:#FFB000;stroke-width:1.0;"/></g><!--link sri to utah--><g id="link_sri_utah"><path codeLine="21" d="M268.309,143.5 C288.257,143.5 308.205,143.5 328.153,143.5 " fill="none" id="sri-utah" style="stroke:#FFB000;stroke-width:1.0;"/></g><!--link utah to POP\n 10--><g id="link_utah_POP\n 10"><path codeLine="22" d="M365.048,170.244 C368.846,187.865 373.899,211.311 377.903,229.8896 " fill="none" id="utah-POP\n 10" style="stroke:#FFB000;stroke-width:1.0;"/></g><!--SRC=[LOun3u8m48Nt_eeJvoOYHEEeB9gOI4Gsbm8Lcj3Mj2NuyoqjcBfSxjrtx-wjJ4SvXLePJ7X55I9zBqVEFaoq225jf28jXGWWNZz5cLsF4H0DGzsJ06ujW-9-SKmh5g1aGcLMd6QVhiAZa3hyE9uzDgH3ICZ6meArdC0-ckKXtInjilkr-Ist_jXgD4K2h5ZR6Hou_NXuOvzBCI_iEIzw-hBxBfTV_HleQXdOfzumVt1HfmAuaQF0GPOl]--></g></svg>