<svg xmlns="http://www.w3.org/2000/svg" xmlns:xlink="http://www.w3.org/1999/xlink" version="1.1" width="552pt" height="293pt" style="background-color:#252525;" viewBox="0 0 552 293">
<defs>
<clipPath id="clip_0">
<path transform="matrix(.75,0,0,.75,0,0)" d="M0-1.334471H736V389.66554H0V-1.334471Z" fill-rule="evenodd"/>
</clipPath>
<clipPath id="clip_1">
<path transform="matrix(.75,0,0,.75,0,0)" d="M0-1.334471H736V389.66554H0V-1.334471Z" fill-rule="evenodd"/>
</clipPath>
<clipPath id="clip_2">
<path transform="matrix(.75,0,0,.75,0,0)" d="M74.666667 44.037546H610.6667V369.64848H74.666667V44.037546Z" fill-rule="evenodd"/>
</clipPath>
<clipPath id="clip_3">
<path transform="matrix(.75,0,0,.75,0,0)" d="M0-1.334471H736V389.66554H0V-1.334471Z" fill-rule="evenodd"/>
</clipPath>
<clipPath id="clip_4">
<path transform="matrix(.75,0,0,.75,0,0)" d="M0-1.334471H736V389.66554H0V-1.334471Z" fill-rule="evenodd"/>
</clipPath>
<clipPath id="clip_5">
<path transform="matrix(.75,0,0,.75,0,0)" d="M0-1.334471H736V389.66554H0V-1.334471Z" fill-rule="evenodd"/>
</clipPath>
<clipPath id="clip_6">
<path transform="matrix(.75,0,0,.75,0,0)" d="M0-1.334471H736V389.66554H0V-1.334471Z" fill-rule="evenodd"/>
</clipPath>
<clipPath id="clip_7">
<path transform="matrix(.75,0,0,.75,0,0)" d="M0-1.334471H736V389.66554H0V-1.334471Z" fill-rule="evenodd"/>
</clipPath>
<clipPath id="clip_8">
<path transform="matrix(.75,0,0,.75,0,0)" d="M0-1.334471H736V389.66554H0V-1.334471Z" fill-rule="evenodd"/>
</clipPath>
</defs>
<g clip-path="url(#clip_0)">
</g>
<g clip-path="url(#clip_1)">
</g>
<g clip-path="url(#clip_2)">
<path transform="matrix(.75,0,0,.75,0,0)" d="M231.33333 369.64848V364.31059 363.64335H232.66667V364.31059 369.64848 370.3157H231.33333V369.64848ZM231.33333 361.64164V356.30375 355.6365H232.66667V356.30375 361.64164 362.30888H231.33333V361.64164ZM231.33333 353.63484V348.29695 347.6297H232.66667V348.29695 353.63484 354.30204H231.33333V353.63484ZM231.33333 345.628V340.2901 339.62287H232.66667V340.2901 345.628 346.29524H231.33333V345.628ZM231.33333 337.62117V332.28327 331.61604H232.66667V332.28327 337.62117 338.2884H231.33333V337.62117ZM231.33333 329.61433V324.27647 323.60923H232.66667V324.27647 329.61433 330.28157H231.33333V329.61433ZM231.33333 321.6075V316.26963 315.6024H232.66667V316.26963 321.6075 322.27476H231.33333V321.6075ZM231.33333 313.60069V308.2628 307.59556H232.66667V308.2628 313.60069 314.2679H231.33333V313.60069ZM231.33333 305.59385V300.25599 299.58876H232.66667V300.25599 305.59385 306.26109H231.33333V305.59385ZM231.33333 297.58705V292.24916 291.5819H232.66667V292.24916 297.58705 298.25428H231.33333V297.58705ZM231.33333 289.5802V284.2423 283.57508H232.66667V284.2423 289.5802 290.24745H231.33333V289.5802ZM231.33333 281.57337V276.2355 275.56828H232.66667V276.2355 281.57337 282.2406H231.33333V281.57337ZM231.33333 273.56657V268.22868 267.56144H232.66667V268.22868 273.56657 274.2338H231.33333V273.56657ZM231.33333 265.55973V260.22184 259.5546H232.66667V260.22184 265.55973 266.22697H231.33333V265.55973ZM231.33333 257.5529V252.21501 251.54778H232.66667V252.21501 257.5529 258.22013H231.33333V257.5529ZM231.33333 249.54608V244.20819 243.54096H232.66667V244.20819 249.54608 250.2133H231.33333V249.54608ZM231.33333 241.53925V236.20137 235.53414H232.66667V236.20137 241.53925 242.20648H231.33333V241.53925ZM231.33333 233.53243V228.19454 227.5273H232.66667V228.19454 233.53243 234.19966H231.33333V233.53243ZM231.33333 225.5256V220.18772 219.52048H232.66667V220.18772 225.5256 226.19283H231.33333V225.5256ZM231.33333 217.51877V212.1809 211.51366H232.66667V212.1809 217.51877 218.186H231.33333V217.51877ZM231.33333 209.51195V204.17406 203.50682H232.66667V204.17406 209.51195 210.17919H231.33333V209.51195ZM231.33333 201.50511V196.16724 195.5H232.66667V196.16724 201.50511 202.17235H231.33333V201.50511ZM231.33333 193.49829V188.16042 187.49318H232.66667V188.16042 193.49829 194.16553H231.33333V193.49829ZM231.33333 185.49147V180.15358 179.48635H232.66667V180.15358 185.49147 186.1587H231.33333V185.49147ZM231.33333 177.48464V172.14676 171.47953H232.66667V172.14676 177.48464 178.15187H231.33333V177.48464ZM231.33333 169.47782V164.13994 163.4727H232.66667V164.13994 169.47782 170.14505H231.33333V169.47782ZM231.33333 161.471V156.1331 155.46587H232.66667V156.1331 161.471 162.13823H231.33333V161.471ZM231.33333 153.46416V148.12628 147.45905H232.66667V148.12628 153.46416 154.1314H231.33333V153.46416ZM231.33333 145.45734V140.11945 139.45223H232.66667V140.11945 145.45734 146.12458H231.33333V145.45734ZM231.33333 137.45052V132.11263 131.44539H232.66667V132.11263 137.45052 138.11775H231.33333V137.45052ZM231.33333 129.44368V124.105808 123.43857H232.66667V124.105808 129.44368 130.11092H231.33333V129.44368ZM231.33333 121.43686V116.098979 115.43174H232.66667V116.098979 121.43686 122.104099H231.33333V121.43686ZM231.33333 113.43003V108.09215 107.42491H232.66667V108.09215 113.43003 114.09727H231.33333V113.43003ZM231.33333 105.42321V100.08533 99.41809H232.66667V100.08533 105.42321 106.09045H231.33333V105.42321ZM231.33333 97.41638V92.0785 91.41126H232.66667V92.0785 97.41638 98.08362H231.33333V97.41638ZM231.33333 89.40955V84.07167 83.404438H232.66667V84.07167 89.40955 90.07679H231.33333V89.40955ZM231.33333 81.40273V76.06485 75.39761H232.66667V76.06485 81.40273 82.06997H231.33333V81.40273ZM231.33333 73.395908V68.05802 67.390789H232.66667V68.05802 73.395908 74.06314H231.33333V73.395908ZM231.33333 65.38908V60.051195 59.38396H232.66667V60.051195 65.38908 66.05631H231.33333V65.38908ZM231.33333 57.38225V52.04437 51.377134H232.66667V52.04437 57.38225 58.049489H231.33333V57.38225ZM231.33333 49.375429V44.037546 43.370309H232.66667V44.037546 49.375429 50.042665H231.33333V49.375429Z" fill-opacity=".50196078"/>
<path transform="matrix(.75,0,0,.75,0,0)" d="M547.3333 369.64848V364.31059 363.64335H548.6667V364.31059 369.64848 370.3157H547.3333V369.64848ZM547.3333 361.64164V356.30375 355.6365H548.6667V356.30375 361.64164 362.30888H547.3333V361.64164ZM547.3333 353.63484V348.29695 347.6297H548.6667V348.29695 353.63484 354.30204H547.3333V353.63484ZM547.3333 345.628V340.2901 339.62287H548.6667V340.2901 345.628 346.29524H547.3333V345.628ZM547.3333 337.62117V332.28327 331.61604H548.6667V332.28327 337.62117 338.2884H547.3333V337.62117ZM547.3333 329.61433V324.27647 323.60923H548.6667V324.27647 329.61433 330.28157H547.3333V329.61433ZM547.3333 321.6075V316.26963 315.6024H548.6667V316.26963 321.6075 322.27476H547.3333V321.6075ZM547.3333 313.60069V308.2628 307.59556H548.6667V308.2628 313.60069 314.2679H547.3333V313.60069ZM547.3333 305.59385V300.25599 299.58876H548.6667V300.25599 305.59385 306.26109H547.3333V305.59385ZM547.3333 297.58705V292.24916 291.5819H548.6667V292.24916 297.58705 298.25428H547.3333V297.58705ZM547.3333 289.5802V284.2423 283.57508H548.6667V284.2423 289.5802 290.24745H547.3333V289.5802ZM547.3333 281.57337V276.2355 275.56828H548.6667V276.2355 281.57337 282.2406H547.3333V281.57337ZM547.3333 273.56657V268.22868 267.56144H548.6667V268.22868 273.56657 274.2338H547.3333V273.56657ZM547.3333 265.55973V260.22184 259.5546H548.6667V260.22184 265.55973 266.22697H547.3333V265.55973ZM547.3333 257.5529V252.21501 251.54778H548.6667V252.21501 257.5529 258.22013H547.3333V257.5529ZM547.3333 249.54608V244.20819 243.54096H548.6667V244.20819 249.54608 250.2133H547.3333V249.54608ZM547.3333 241.53925V236.20137 235.53414H548.6667V236.20137 241.53925 242.20648H547.3333V241.53925ZM547.3333 233.53243V228.19454 227.5273H548.6667V228.19454 233.53243 234.19966H547.3333V233.53243ZM547.3333 225.5256V220.18772 219.52048H548.6667V220.18772 225.5256 226.19283H547.3333V225.5256ZM547.3333 217.51877V212.1809 211.51366H548.6667V212.1809 217.51877 218.186H547.3333V217.51877ZM547.3333 209.51195V204.17406 203.50682H548.6667V204.17406 209.51195 210.17919H547.3333V209.51195ZM547.3333 201.50511V196.16724 195.5H548.6667V196.16724 201.50511 202.17235H547.3333V201.50511ZM547.3333 193.49829V188.16042 187.49318H548.6667V188.16042 193.49829 194.16553H547.3333V193.49829ZM547.3333 185.49147V180.15358 179.48635H548.6667V180.15358 185.49147 186.1587H547.3333V185.49147ZM547.3333 177.48464V172.14676 171.47953H548.6667V172.14676 177.48464 178.15187H547.3333V177.48464ZM547.3333 169.47782V164.13994 163.4727H548.6667V164.13994 169.47782 170.14505H547.3333V169.47782ZM547.3333 161.471V156.1331 155.46587H548.6667V156.1331 161.471 162.13823H547.3333V161.471ZM547.3333 153.46416V148.12628 147.45905H548.6667V148.12628 153.46416 154.1314H547.3333V153.46416ZM547.3333 145.45734V140.11945 139.45223H548.6667V140.11945 145.45734 146.12458H547.3333V145.45734ZM547.3333 137.45052V132.11263 131.44539H548.6667V132.11263 137.45052 138.11775H547.3333V137.45052ZM547.3333 129.44368V124.105808 123.43857H548.6667V124.105808 129.44368 130.11092H547.3333V129.44368ZM547.3333 121.43686V116.098979 115.43174H548.6667V116.098979 121.43686 122.104099H547.3333V121.43686ZM547.3333 113.43003V108.09215 107.42491H548.6667V108.09215 113.43003 114.09727H547.3333V113.43003ZM547.3333 105.42321V100.08533 99.41809H548.6667V100.08533 105.42321 106.09045H547.3333V105.42321ZM547.3333 97.41638V92.0785 91.41126H548.6667V92.0785 97.41638 98.08362H547.3333V97.41638ZM547.3333 89.40955V84.07167 83.404438H548.6667V84.07167 89.40955 90.07679H547.3333V89.40955ZM547.3333 81.40273V76.06485 75.39761H548.6667V76.06485 81.40273 82.06997H547.3333V81.40273ZM547.3333 73.395908V68.05802 67.390789H548.6667V68.05802 73.395908 74.06314H547.3333V73.395908ZM547.3333 65.38908V60.051195 59.38396H548.6667V60.051195 65.38908 66.05631H547.3333V65.38908ZM547.3333 57.38225V52.04437 51.377134H548.6667V52.04437 57.38225 58.049489H547.3333V57.38225ZM547.3333 49.375429V44.037546 43.370309H548.6667V44.037546 49.375429 50.042665H547.3333V49.375429Z" fill-opacity=".50196078"/>
<path transform="matrix(1,0,0,1.0008533,0,0)" d="M56 43H459V63H56Z" fill="#263926"/>
<path transform="matrix(.75,0,0,.75,0,0)" d="M232.66667 57.38225V62.720136 63.38737H231.33333V62.720136 57.38225 56.715017H232.66667V57.38225ZM232.66667 65.38908V70.72696 71.394199H231.33333V70.72696 65.38908 64.72184H232.66667V65.38908ZM232.66667 73.395908V78.73379 79.401027H231.33333V78.73379 73.395908 72.72867H232.66667V73.395908ZM232.66667 81.40273V82.7372 83.404438H231.33333V82.7372 81.40273 80.7355H232.66667V81.40273Z" fill-opacity=".50196078"/>
<path transform="matrix(.75,0,0,.75,0,0)" d="M548.6667 57.38225V62.720136 63.38737H547.3333V62.720136 57.38225 56.715017H548.6667V57.38225ZM548.6667 65.38908V70.72696 71.394199H547.3333V70.72696 65.38908 64.72184H548.6667V65.38908ZM548.6667 73.395908V78.73379 79.401027H547.3333V78.73379 73.395908 72.72867H548.6667V73.395908ZM548.6667 81.40273V82.7372 83.404438H547.3333V82.7372 81.40273 80.7355H548.6667V81.40273Z" fill-opacity=".50196078"/>
<path transform="matrix(.75,0,0,.75,0,0)" d="M232 72.72867H548 548.6667V74.06314H548 232 231.33333V72.72867H232Z"/>
<path transform="matrix(.75,0,0,.75,0,0)" d="M540 70.72696 548 73.395908 540 76.06485V70.72696Z" fill-rule="evenodd"/>
<path transform="matrix(.75,0,0,.75,0,0)" d="M540.2108 70.09396 548.2108 72.76291V74.0289L540.2108 76.69784 539.3333 76.06485V70.72696L540.2108 70.09396ZM540.6667 70.72696V76.06485H540L539.7892 75.431858 547.7892 72.76291 548 73.395908 547.7892 74.0289 539.7892 71.359958 540 70.72696H540.6667Z"/>
<text xml:space="preserve" transform="matrix(1 0 0 1.0008533 0 0)" font-size="9" font-family="TahomaNormaali" fill="#ffb000"><tspan y="52" x="283 289 295">SYN</tspan></text>
<text xml:space="preserve" transform="matrix(1 0 0 1.0008533 0 0)" font-size="9" font-family="TahomaNormaali" fill="#ffb000"><tspan y="57" x="143 148 153 158 163">16760</tspan></text>
<text xml:space="preserve" transform="matrix(1 0 0 1.0008533 0 0)" font-size="9" font-family="TahomaNormaali" fill="#ffb000"><tspan y="57" x="416 421 426 431 436">55555</tspan></text>
<path transform="matrix(1,0,0,1.0008533,0,0)" d="M56 62H459V83H56Z" fill="#90ee90"/>
<path transform="matrix(.75,0,0,.75,0,0)" d="M232.66667 82.7372V88.07509 88.74232H231.33333V88.07509 82.7372 82.06997H232.66667V82.7372ZM232.66667 90.744029V96.08191 96.749149H231.33333V96.08191 90.744029 90.07679H232.66667V90.744029ZM232.66667 98.750858V104.08874 104.755977H231.33333V104.08874 98.750858 98.08362H232.66667V98.750858ZM232.66667 106.75768V109.42662 110.09386H231.33333V109.42662 106.75768 106.09045H232.66667V106.75768Z" fill-opacity=".50196078"/>
<path transform="matrix(.75,0,0,.75,0,0)" d="M548.6667 82.7372V88.07509 88.74232H547.3333V88.07509 82.7372 82.06997H548.6667V82.7372ZM548.6667 90.744029V96.08191 96.749149H547.3333V96.08191 90.744029 90.07679H548.6667V90.744029ZM548.6667 98.750858V104.08874 104.755977H547.3333V104.08874 98.750858 98.08362H548.6667V98.750858ZM548.6667 106.75768V109.42662 110.09386H547.3333V109.42662 106.75768 106.09045H548.6667V106.75768Z" fill-opacity=".50196078"/>
<path transform="matrix(.75,0,0,.75,0,0)" d="M548 99.41809H232 231.33333V98.08362H232 548 548.6667V99.41809H548Z"/>
<path transform="matrix(.75,0,0,.75,0,0)" d="M240 101.41979 232 98.750858 240 96.08191V101.41979Z" fill-rule="evenodd"/>
<path transform="matrix(.75,0,0,.75,0,0)" d="M239.78919 102.05279 231.78919 99.38385V98.11786L239.78919 95.44891 240.66667 96.08191V101.41979L239.78919 102.05279ZM239.33333 101.41979V96.08191H240L240.21082 96.714908 232.21082 99.38385 232 98.750858 232.21082 98.11786 240.21082 100.7868 240 101.41979H239.33333Z"/>
<text xml:space="preserve" transform="matrix(1 0 0 1.0008533 0 0)" font-size="9" font-family="TahomaNormaali" fill="#ffb000"><tspan y="71" x="270 276 282 289 292 295 302 309">SYN, ACK</tspan></text>
<text xml:space="preserve" transform="matrix(1 0 0 1.0008533 0 0)" font-size="9" font-family="TahomaNormaali" fill="#ffb000"><tspan y="76" x="143 148 153 158 163">16760</tspan></text>
<text xml:space="preserve" transform="matrix(1 0 0 1.0008533 0 0)" font-size="9" font-family="TahomaNormaali" fill="#ffb000"><tspan y="76" x="416 421 426 431 436">55555</tspan></text>
<path transform="matrix(1,0,0,1.0008533,0,0)" d="M56 82H459V102H56Z" fill="#90ee90"/>
<path transform="matrix(.75,0,0,.75,0,0)" d="M232.66667 109.42662V114.7645 115.43174H231.33333V114.7645 109.42662 108.759387H232.66667V109.42662ZM232.66667 117.43345V122.77133 123.43857H231.33333V122.77133 117.43345 116.76621H232.66667V117.43345ZM232.66667 125.44027V130.77816 131.44539H231.33333V130.77816 125.44027 124.77304H232.66667V125.44027ZM232.66667 133.4471V134.78157 135.4488H231.33333V134.78157 133.4471 132.77986H232.66667V133.4471Z" fill-opacity=".50196078"/>
<path transform="matrix(.75,0,0,.75,0,0)" d="M548.6667 109.42662V114.7645 115.43174H547.3333V114.7645 109.42662 108.759387H548.6667V109.42662ZM548.6667 117.43345V122.77133 123.43857H547.3333V122.77133 117.43345 116.76621H548.6667V117.43345ZM548.6667 125.44027V130.77816 131.44539H547.3333V130.77816 125.44027 124.77304H548.6667V125.44027ZM548.6667 133.4471V134.78157 135.4488H547.3333V134.78157 133.4471 132.77986H548.6667V133.4471Z" fill-opacity=".50196078"/>
<path transform="matrix(.75,0,0,.75,0,0)" d="M232 124.77304H548 548.6667V126.107509H548 232 231.33333V124.77304H232Z"/>
<path transform="matrix(.75,0,0,.75,0,0)" d="M540 122.77133 548 125.44027 540 128.10923V122.77133Z" fill-rule="evenodd"/>
<path transform="matrix(.75,0,0,.75,0,0)" d="M540.2108 122.138339 548.2108 124.807277V126.073268L540.2108 128.7422 539.3333 128.10923V122.77133L540.2108 122.138339ZM540.6667 122.77133V128.10923H540L539.7892 127.47622 547.7892 124.807277 548 125.44027 547.7892 126.073268 539.7892 123.40433 540 122.77133H540.6667Z"/>
<text xml:space="preserve" transform="matrix(1 0 0 1.0008533 0 0)" font-size="9" font-family="TahomaNormaali" fill="#ffb000"><tspan y="91" x="282 289 296">ACK</tspan></text>
<text xml:space="preserve" transform="matrix(1 0 0 1.0008533 0 0)" font-size="9" font-family="TahomaNormaali" fill="#ffb000"><tspan y="96" x="143 148 153 158 163">16760</tspan></text>
<text xml:space="preserve" transform="matrix(1 0 0 1.0008533 0 0)" font-size="9" font-family="TahomaNormaali" fill="#ffb000"><tspan y="96" x="416 421 426 431 436">55555</tspan></text>
<path transform="matrix(1,0,0,1.0008533,0,0)" d="M56 101H459V122H56Z" fill="#90ee90"/>
<path transform="matrix(.75,0,0,.75,0,0)" d="M232.66667 134.78157V140.11945 140.78668H231.33333V140.11945 134.78157 134.11434H232.66667V134.78157ZM232.66667 142.78839V148.12628 148.79352H231.33333V148.12628 142.78839 142.12116H232.66667V142.78839ZM232.66667 150.79523V156.1331 156.80034H231.33333V156.1331 150.79523 150.12799H232.66667V150.79523ZM232.66667 158.80205V161.471 162.13823H231.33333V161.471 158.80205 158.13481H232.66667V158.80205Z" fill-opacity=".50196078"/>
<path transform="matrix(.75,0,0,.75,0,0)" d="M548.6667 134.78157V140.11945 140.78668H547.3333V140.11945 134.78157 134.11434H548.6667V134.78157ZM548.6667 142.78839V148.12628 148.79352H547.3333V148.12628 142.78839 142.12116H548.6667V142.78839ZM548.6667 150.79523V156.1331 156.80034H547.3333V156.1331 150.79523 150.12799H548.6667V150.79523ZM548.6667 158.80205V161.471 162.13823H547.3333V161.471 158.80205 158.13481H548.6667V158.80205Z" fill-opacity=".50196078"/>
<path transform="matrix(.75,0,0,.75,0,0)" d="M232 150.12799H548 548.6667V151.46247H548 232 231.33333V150.12799H232Z"/>
<path transform="matrix(.75,0,0,.75,0,0)" d="M540 148.12628 548 150.79523 540 153.46416V148.12628Z" fill-rule="evenodd"/>
<path transform="matrix(.75,0,0,.75,0,0)" d="M540.2108 147.49329 548.2108 150.16223V151.42823L540.2108 154.09716 539.3333 153.46416V148.12628L540.2108 147.49329ZM540.6667 148.12628V153.46416H540L539.7892 152.83116 547.7892 150.16223 548 150.79523 547.7892 151.42823 539.7892 148.75928 540 148.12628H540.6667Z"/>
<text xml:space="preserve" transform="matrix(1 0 0 1.0008533 0 0)" font-size="9" font-family="TahomaNormaali" fill="#ffb000"><tspan y="110" x="250 256 262 269 272 275 282 289 295 298 301 304 308 313 318 321 324 329">PSH, ACK - Len: 23</tspan></text>
<text xml:space="preserve" transform="matrix(1 0 0 1.0008533 0 0)" font-size="9" font-family="TahomaNormaali" fill="#ffb000"><tspan y="115" x="143 148 153 158 163">16760</tspan></text>
<text xml:space="preserve" transform="matrix(1 0 0 1.0008533 0 0)" font-size="9" font-family="TahomaNormaali" fill="#ffb000"><tspan y="115" x="416 421 426 431 436">55555</tspan></text>
<path transform="matrix(1,0,0,1.0008533,0,0)" d="M56 121H459V141H56Z" fill="#90ee90"/>
<path transform="matrix(.75,0,0,.75,0,0)" d="M232.66667 161.471V166.80887 167.4761H231.33333V166.80887 161.471 160.80376H232.66667V161.471ZM232.66667 169.47782V174.8157 175.48294H231.33333V174.8157 169.47782 168.81058H232.66667V169.47782ZM232.66667 177.48464V182.82253 183.48976H231.33333V182.82253 177.48464 176.81742H232.66667V177.48464ZM232.66667 185.49147V186.82595 187.49318H231.33333V186.82595 185.49147 184.82424H232.66667V185.49147Z" fill-opacity=".50196078"/>
<path transform="matrix(.75,0,0,.75,0,0)" d="M548.6667 161.471V166.80887 167.4761H547.3333V166.80887 161.471 160.80376H548.6667V161.471ZM548.6667 169.47782V174.8157 175.48294H547.3333V174.8157 169.47782 168.81058H548.6667V169.47782ZM548.6667 177.48464V182.82253 183.48976H547.3333V182.82253 177.48464 176.81742H548.6667V177.48464ZM548.6667 185.49147V186.82595 187.49318H547.3333V186.82595 185.49147 184.82424H548.6667V185.49147Z" fill-opacity=".50196078"/>
<path transform="matrix(.75,0,0,.75,0,0)" d="M232 176.81742H548 548.6667V178.15187H548 232 231.33333V176.81742H232Z"/>
<path transform="matrix(.75,0,0,.75,0,0)" d="M540 174.8157 548 177.48464 540 180.15358V174.8157Z" fill-rule="evenodd"/>
<path transform="matrix(.75,0,0,.75,0,0)" d="M540.2108 174.18271 548.2108 176.85164V178.11763L540.2108 180.78658 539.3333 180.15358V174.8157L540.2108 174.18271ZM540.6667 174.8157V180.15358H540L539.7892 179.52059 547.7892 176.85164 548 177.48464 547.7892 178.11763 539.7892 175.4487 540 174.8157H540.6667Z"/>
<text xml:space="preserve" transform="matrix(1 0 0 1.0008533 0 0)" font-size="9" font-family="TahomaNormaali" fill="#ffb000"><tspan y="130" x="271 277 281 288 291 294 301 308">FIN, ACK</tspan></text>
<text xml:space="preserve" transform="matrix(1 0 0 1.0008533 0 0)" font-size="9" font-family="TahomaNormaali" fill="#ffb000"><tspan y="135" x="143 148 153 158 163">16760</tspan></text>
<text xml:space="preserve" transform="matrix(1 0 0 1.0008533 0 0)" font-size="9" font-family="TahomaNormaali" fill="#ffb000"><tspan y="135" x="416 421 426 431 436">55555</tspan></text>
<path transform="matrix(1,0,0,1.0008533,0,0)" d="M56 140H459V161H56Z" fill="#90ee90"/>
<path transform="matrix(.75,0,0,.75,0,0)" d="M232.66667 186.82595V192.16382 192.83106H231.33333V192.16382 186.82595 186.1587H232.66667V186.82595ZM232.66667 194.83277V200.17066 200.83789H231.33333V200.17066 194.83277 194.16553H232.66667V194.83277ZM232.66667 202.83959V208.17748 208.84471H231.33333V208.17748 202.83959 202.17235H232.66667V202.83959ZM232.66667 210.84642V213.51537 214.18259H231.33333V213.51537 210.84642 210.17919H232.66667V210.84642Z" fill-opacity=".50196078"/>
<path transform="matrix(.75,0,0,.75,0,0)" d="M548.6667 186.82595V192.16382 192.83106H547.3333V192.16382 186.82595 186.1587H548.6667V186.82595ZM548.6667 194.83277V200.17066 200.83789H547.3333V200.17066 194.83277 194.16553H548.6667V194.83277ZM548.6667 202.83959V208.17748 208.84471H547.3333V208.17748 202.83959 202.17235H548.6667V202.83959ZM548.6667 210.84642V213.51537 214.18259H547.3333V213.51537 210.84642 210.17919H548.6667V210.84642Z" fill-opacity=".50196078"/>
<path transform="matrix(.75,0,0,.75,0,0)" d="M548 203.50682H232 231.33333V202.17235H232 548 548.6667V203.50682H548Z"/>
<path transform="matrix(.75,0,0,.75,0,0)" d="M240 205.50853 232 202.83959 240 200.17066V205.50853Z" fill-rule="evenodd"/>
<path transform="matrix(.75,0,0,.75,0,0)" d="M239.78919 206.14153 231.78919 203.47258V202.20659L239.78919 199.53766 240.66667 200.17066V205.50853L239.78919 206.14153ZM239.33333 205.50853V200.17066H240L240.21082 200.80365 232.21082 203.47258 232 202.83959 232.21082 202.20659 240.21082 204.87554 240 205.50853H239.33333Z"/>
<text xml:space="preserve" transform="matrix(1 0 0 1.0008533 0 0)" font-size="9" font-family="TahomaNormaali" fill="#ffb000"><tspan y="149" x="282 289 296">ACK</tspan></text>
<text xml:space="preserve" transform="matrix(1 0 0 1.0008533 0 0)" font-size="9" font-family="TahomaNormaali" fill="#ffb000"><tspan y="154" x="143 148 153 158 163">16760</tspan></text>
<text xml:space="preserve" transform="matrix(1 0 0 1.0008533 0 0)" font-size="9" font-family="TahomaNormaali" fill="#ffb000"><tspan y="154" x="416 421 426 431 436">55555</tspan></text>
<path transform="matrix(1,0,0,1.0008533,0,0)" d="M56 160H459V180H56Z" fill="#90ee90"/>
<path transform="matrix(.75,0,0,.75,0,0)" d="M232.66667 213.51537V218.85324 219.52048H231.33333V218.85324 213.51537 212.84813H232.66667V213.51537ZM232.66667 221.52219V226.86006 227.5273H231.33333V226.86006 221.52219 220.85495H232.66667V221.52219ZM232.66667 229.529V234.8669 235.53414H231.33333V234.8669 229.529 228.86177H232.66667V229.529ZM232.66667 237.53585V238.8703 239.53754H231.33333V238.8703 237.53585 236.8686H232.66667V237.53585Z" fill-opacity=".50196078"/>
<path transform="matrix(.75,0,0,.75,0,0)" d="M548.6667 213.51537V218.85324 219.52048H547.3333V218.85324 213.51537 212.84813H548.6667V213.51537ZM548.6667 221.52219V226.86006 227.5273H547.3333V226.86006 221.52219 220.85495H548.6667V221.52219ZM548.6667 229.529V234.8669 235.53414H547.3333V234.8669 229.529 228.86177H548.6667V229.529ZM548.6667 237.53585V238.8703 239.53754H547.3333V238.8703 237.53585 236.8686H548.6667V237.53585Z" fill-opacity=".50196078"/>
<path transform="matrix(.75,0,0,.75,0,0)" d="M548 230.19625H232 231.33333V228.86177H232 548 548.6667V230.19625H548Z"/>
<path transform="matrix(.75,0,0,.75,0,0)" d="M240 232.19795 232 229.529 240 226.86006V232.19795Z" fill-rule="evenodd"/>
<path transform="matrix(.75,0,0,.75,0,0)" d="M239.78919 232.83095 231.78919 230.162V228.89601L239.78919 226.22707 240.66667 226.86006V232.19795L239.78919 232.83095ZM239.33333 232.19795V226.86006H240L240.21082 227.49306 232.21082 230.162 232 229.529 232.21082 228.89601 240.21082 231.56496 240 232.19795H239.33333Z"/>
<text xml:space="preserve" transform="matrix(1 0 0 1.0008533 0 0)" font-size="9" font-family="TahomaNormaali" fill="#ffb000"><tspan y="169" x="250 256 262 269 272 275 282 289 295 298 301 304 308 313 318 321 324 329">PSH, ACK - Len: 40</tspan></text>
<text xml:space="preserve" transform="matrix(1 0 0 1.0008533 0 0)" font-size="9" font-family="TahomaNormaali" fill="#ffb000"><tspan y="174" x="143 148 153 158 163">16760</tspan></text>
<text xml:space="preserve" transform="matrix(1 0 0 1.0008533 0 0)" font-size="9" font-family="TahomaNormaali" fill="#ffb000"><tspan y="174" x="416 421 426 431 436">55555</tspan></text>
<path transform="matrix(1,0,0,1.0008533,0,0)" d="M56 179H459V200H56Z" fill="#90ee90"/>
<path transform="matrix(.75,0,0,.75,0,0)" d="M232.66667 238.8703V244.20819 244.87543H231.33333V244.20819 238.8703 238.20307H232.66667V238.8703ZM232.66667 246.87714V252.21501 252.88225H231.33333V252.21501 246.87714 246.2099H232.66667V246.87714ZM232.66667 254.88396V260.22184 260.88908H231.33333V260.22184 254.88396 254.21672H232.66667V254.88396ZM232.66667 262.89079V265.55973 266.22697H231.33333V265.55973 262.89079 262.22355H232.66667V262.89079Z" fill-opacity=".50196078"/>
<path transform="matrix(.75,0,0,.75,0,0)" d="M548.6667 238.8703V244.20819 244.87543H547.3333V244.20819 238.8703 238.20307H548.6667V238.8703ZM548.6667 246.87714V252.21501 252.88225H547.3333V252.21501 246.87714 246.2099H548.6667V246.87714ZM548.6667 254.88396V260.22184 260.88908H547.3333V260.22184 254.88396 254.21672H548.6667V254.88396ZM548.6667 262.89079V265.55973 266.22697H547.3333V265.55973 262.89079 262.22355H548.6667V262.89079Z" fill-opacity=".50196078"/>
<path transform="matrix(.75,0,0,.75,0,0)" d="M548 255.5512H232 231.33333V254.21672H232 548 548.6667V255.5512H548Z"/>
<path transform="matrix(.75,0,0,.75,0,0)" d="M240 257.5529 232 254.88396 240 252.21501V257.5529Z" fill-rule="evenodd"/>
<path transform="matrix(.75,0,0,.75,0,0)" d="M239.78919 258.18589 231.78919 255.51696V254.25096L239.78919 251.58202 240.66667 252.21501V257.5529L239.78919 258.18589ZM239.33333 257.5529V252.21501H240L240.21082 252.848 232.21082 255.51696 232 254.88396 232.21082 254.25096 240.21082 256.9199 240 257.5529H239.33333Z"/>
<text xml:space="preserve" transform="matrix(1 0 0 1.0008533 0 0)" font-size="9" font-family="TahomaNormaali" fill="#ffb000"><tspan y="188" x="271 277 281 288 291 294 301 308">FIN, ACK</tspan></text>
<text xml:space="preserve" transform="matrix(1 0 0 1.0008533 0 0)" font-size="9" font-family="TahomaNormaali" fill="#ffb000"><tspan y="193" x="143 148 153 158 163">16760</tspan></text>
<text xml:space="preserve" transform="matrix(1 0 0 1.0008533 0 0)" font-size="9" font-family="TahomaNormaali" fill="#ffb000"><tspan y="193" x="416 421 426 431 436">55555</tspan></text>
<path transform="matrix(1,0,0,1.0008533,0,0)" d="M56 199H459V219H56Z" fill="#90ee90"/>
<path transform="matrix(.75,0,0,.75,0,0)" d="M232.66667 265.55973V270.8976 271.56486H231.33333V270.8976 265.55973 264.8925H232.66667V265.55973ZM232.66667 273.56657V278.90446 279.5717H231.33333V278.90446 273.56657 272.89933H232.66667V273.56657ZM232.66667 281.57337V286.91127 287.5785H231.33333V286.91127 281.57337 280.90614H232.66667V281.57337ZM232.66667 289.5802V290.91468 291.5819H231.33333V290.91468 289.5802 288.91297H232.66667V289.5802Z" fill-opacity=".50196078"/>
<path transform="matrix(.75,0,0,.75,0,0)" d="M548.6667 265.55973V270.8976 271.56486H547.3333V270.8976 265.55973 264.8925H548.6667V265.55973ZM548.6667 273.56657V278.90446 279.5717H547.3333V278.90446 273.56657 272.89933H548.6667V273.56657ZM548.6667 281.57337V286.91127 287.5785H547.3333V286.91127 281.57337 280.90614H548.6667V281.57337ZM548.6667 289.5802V290.91468 291.5819H547.3333V290.91468 289.5802 288.91297H548.6667V289.5802Z" fill-opacity=".50196078"/>
<path transform="matrix(.75,0,0,.75,0,0)" d="M548 282.2406H232 231.33333V280.90614H232 548 548.6667V282.2406H548Z"/>
<path transform="matrix(.75,0,0,.75,0,0)" d="M240 284.2423 232 281.57337 240 278.90446V284.2423Z" fill-rule="evenodd"/>
<path transform="matrix(.75,0,0,.75,0,0)" d="M239.78919 284.8753 231.78919 282.20637V280.94038L239.78919 278.27146 240.66667 278.90446V284.2423L239.78919 284.8753ZM239.33333 284.2423V278.90446H240L240.21082 279.53746 232.21082 282.20637 232 281.57337 232.21082 280.94038 240.21082 283.6093 240 284.2423H239.33333Z"/>
<text xml:space="preserve" transform="matrix(1 0 0 1.0008533 0 0)" font-size="9" font-family="TahomaNormaali" fill="#ffb000"><tspan y="208" x="282 289 296">ACK</tspan></text>
<text xml:space="preserve" transform="matrix(1 0 0 1.0008533 0 0)" font-size="9" font-family="TahomaNormaali" fill="#ffb000"><tspan y="213" x="143 148 153 158 163">16760</tspan></text>
<text xml:space="preserve" transform="matrix(1 0 0 1.0008533 0 0)" font-size="9" font-family="TahomaNormaali" fill="#ffb000"><tspan y="213" x="416 421 426 431 436">55555</tspan></text>
<path transform="matrix(1,0,0,1.0008533,0,0)" d="M56 218H459V239H56Z" fill="#90ee90"/>
<path transform="matrix(.75,0,0,.75,0,0)" d="M232.66667 290.91468V296.25257 296.9198H231.33333V296.25257 290.91468 290.24745H232.66667V290.91468ZM232.66667 298.9215V304.2594 304.92665H231.33333V304.2594 298.9215 298.25428H232.66667V298.9215ZM232.66667 306.9283V312.2662 312.93345H231.33333V312.2662 306.9283 306.26109H232.66667V306.9283ZM232.66667 314.93516V317.6041 318.27134H231.33333V317.6041 314.93516 314.2679H232.66667V314.93516Z" fill-opacity=".50196078"/>
<path transform="matrix(.75,0,0,.75,0,0)" d="M548.6667 290.91468V296.25257 296.9198H547.3333V296.25257 290.91468 290.24745H548.6667V290.91468ZM548.6667 298.9215V304.2594 304.92665H547.3333V304.2594 298.9215 298.25428H548.6667V298.9215ZM548.6667 306.9283V312.2662 312.93345H547.3333V312.2662 306.9283 306.26109H548.6667V306.9283ZM548.6667 314.93516V317.6041 318.27134H547.3333V317.6041 314.93516 314.2679H548.6667V314.93516Z" fill-opacity=".50196078"/>
<path transform="matrix(.75,0,0,.75,0,0)" d="M232 306.26109H548 548.6667V307.59556H548 232 231.33333V306.26109H232Z"/>
<path transform="matrix(.75,0,0,.75,0,0)" d="M540 304.2594 548 306.9283 540 309.59727V304.2594Z" fill-rule="evenodd"/>
<path transform="matrix(.75,0,0,.75,0,0)" d="M540.2108 303.6264 548.2108 306.29533V307.5613L540.2108 310.23027 539.3333 309.59727V304.2594L540.2108 303.6264ZM540.6667 304.2594V309.59727H540L539.7892 308.96427 547.7892 306.29533 548 306.9283 547.7892 307.5613 539.7892 304.8924 540 304.2594H540.6667Z"/>
<text xml:space="preserve" transform="matrix(1 0 0 1.0008533 0 0)" font-size="9" font-family="TahomaNormaali" fill="#ffb000"><tspan y="227" x="282 289 296">ACK</tspan></text>
<text xml:space="preserve" transform="matrix(1 0 0 1.0008533 0 0)" font-size="9" font-family="TahomaNormaali" fill="#ffb000"><tspan y="232" x="143 148 153 158 163">16760</tspan></text>
<text xml:space="preserve" transform="matrix(1 0 0 1.0008533 0 0)" font-size="9" font-family="TahomaNormaali" fill="#ffb000"><tspan y="232" x="416 421 426 431 436">55555</tspan></text>
</g>
<g clip-path="url(#clip_3)">
<text xml:space="preserve" transform="matrix(1 0 0 1.0008533 46 17.014506)" font-size="11" font-family="TahomaNormaali"><tspan y="5" x="-22 -16 -14 -6">Time</tspan></text>
</g>
<g clip-path="url(#clip_4)">
<text xml:space="preserve" transform="matrix(1 0 0 1.0008533 469 17.014506)" font-size="11" font-family="TahomaNormaali"><tspan y="5" x=".5 7.5 13.5 21.5 29.5 35.5 41.5">Comment</tspan></text>
</g>
<g clip-path="url(#clip_5)">
<path transform="matrix(1,0,0,1.0008533,0,0)" stroke-width=".5" stroke-linecap="square" stroke-linejoin="bevel" fill="none" stroke="#3f3f3f" d="M56 33V277"/>
<text xml:space="preserve" transform="matrix(1 0 0 1.0008533 5 46.03925)" font-size="11" font-family="TahomaNormaali" fill="#ffb000"><tspan y="11" x="0 6 10 16 22 28 34 40">0.000000</tspan></text>
<text xml:space="preserve" transform="matrix(1 0 0 1.0008533 5 65.55589)" font-size="11" font-family="TahomaNormaali" fill="#ffb000"><tspan y="11" x="0 6 10 16 22 28 34 40">0.142926</tspan></text>
<text xml:space="preserve" transform="matrix(1 0 0 1.0008533 5 85.072528)" font-size="11" font-family="TahomaNormaali" fill="#ffb000"><tspan y="11" x="0 6 10 16 22 28 34 40">0.143002</tspan></text>
<text xml:space="preserve" transform="matrix(1 0 0 1.0008533 5 104.58917)" font-size="11" font-family="TahomaNormaali" fill="#ffb000"><tspan y="11" x="0 6 10 16 22 28 34 40">0.268795</tspan></text>
<text xml:space="preserve" transform="matrix(1 0 0 1.0008533 5 124.1058)" font-size="11" font-family="TahomaNormaali" fill="#ffb000"><tspan y="11" x="0 6 10 16 22 28 34 40">0.394390</tspan></text>
<text xml:space="preserve" transform="matrix(1 0 0 1.0008533 5 143.62244)" font-size="11" font-family="TahomaNormaali" fill="#ffb000"><tspan y="11" x="0 6 10 16 22 28 34 40">0.462951</tspan></text>
<text xml:space="preserve" transform="matrix(1 0 0 1.0008533 5 163.13907)" font-size="11" font-family="TahomaNormaali" fill="#ffb000"><tspan y="11" x="0 6 10 16 22 28 34 40">0.463011</tspan></text>
<text xml:space="preserve" transform="matrix(1 0 0 1.0008533 5 182.65572)" font-size="11" font-family="TahomaNormaali" fill="#ffb000"><tspan y="11" x="0 6 10 16 22 28 34 40">0.463011</tspan></text>
<text xml:space="preserve" transform="matrix(1 0 0 1.0008533 5 202.17237)" font-size="11" font-family="TahomaNormaali" fill="#ffb000"><tspan y="11" x="0 6 10 16 22 28 34 40">0.463011</tspan></text>
<text xml:space="preserve" transform="matrix(1 0 0 1.0008533 5 221.689)" font-size="11" font-family="TahomaNormaali" fill="#ffb000"><tspan y="11" x="0 6 10 16 22 28 34 40">0.463084</tspan></text>
</g>
<g clip-path="url(#clip_6)">
<path transform="matrix(1,0,0,1.0008533,0,0)" stroke-width=".5" stroke-linecap="square" stroke-linejoin="bevel" fill="none" stroke="#3f3f3f" d="M56 33H458"/>
<text xml:space="preserve" transform="matrix(1 0 0 1.0008533 135.23529 5.0042665)" font-size="11" font-family="TahomaNormaali" fill="#ffb000"><tspan y="11" x="0 6 12 18 22 28 34 40 44 50 56 60 66 72">192.168.30.118</tspan></text>
<text xml:space="preserve" transform="matrix(1 0 0 1.0008533 374.70588 18.015358)" font-size="11" font-family="TahomaNormaali" fill="#ffb000"><tspan y="11" x="0 6 12 18 22 28 34 40 44 50 56 60 66">195.148.31.57</tspan></text>
</g>
<g clip-path="url(#clip_7)">
<path transform="matrix(1,0,0,1.0008533,0,0)" stroke-width=".5" stroke-linecap="square" stroke-linejoin="bevel" fill="none" stroke="#3f3f3f" d="M458 33V277"/>
<text xml:space="preserve" transform="matrix(1 0 0 1.0008533 464 47.0401)" font-size="9" font-family="TahomaNormaali" fill="#ffb000"><tspan y="9" x="0 6 11 16 19 26 29">Seq = 0</tspan></text>
<text xml:space="preserve" transform="matrix(1 0 0 1.0008533 464 66.55674)" font-size="9" font-family="TahomaNormaali" fill="#ffb000"><tspan y="9" x=".5 6.5 11.5 16.5 19.5 26.5 29.5 34.5 37.5 44.5 48.5 53.5 56.5 63.5 66.5">Seq = 0 Ack = 1</tspan></text>
<text xml:space="preserve" transform="matrix(1 0 0 1.0008533 464 86.07338)" font-size="9" font-family="TahomaNormaali" fill="#ffb000"><tspan y="9" x=".5 6.5 11.5 16.5 19.5 26.5 29.5 34.5 37.5 44.5 48.5 53.5 56.5 63.5 66.5">Seq = 1 Ack = 1</tspan></text>
<text xml:space="preserve" transform="matrix(1 0 0 1.0008533 464 105.59001)" font-size="9" font-family="TahomaNormaali" fill="#ffb000"><tspan y="9" x=".5 6.5 11.5 16.5 19.5 26.5 29.5 34.5 37.5 44.5 48.5 53.5 56.5 63.5 66.5">Seq = 1 Ack = 1</tspan></text>
<text xml:space="preserve" transform="matrix(1 0 0 1.0008533 464 125.10665)" font-size="9" font-family="TahomaNormaali" fill="#ffb000"><tspan y="9" x="0 6 11 16 19 26 29 34 39 42 49 53 58 61 68 71">Seq = 24 Ack = 1</tspan></text>
<text xml:space="preserve" transform="matrix(1 0 0 1.0008533 464 144.62329)" font-size="9" font-family="TahomaNormaali" fill="#ffb000"><tspan y="9" x="0 6 11 16 19 26 29 34 37 44 48 53 56 63 66 71">Seq = 1 Ack = 24</tspan></text>
<text xml:space="preserve" transform="matrix(1 0 0 1.0008533 464 164.13993)" font-size="9" font-family="TahomaNormaali" fill="#ffb000"><tspan y="9" x="0 6 11 16 19 26 29 34 37 44 48 53 56 63 66 71">Seq = 1 Ack = 24</tspan></text>
<text xml:space="preserve" transform="matrix(1 0 0 1.0008533 464 183.65657)" font-size="9" font-family="TahomaNormaali" fill="#ffb000"><tspan y="9" x=".5 6.5 11.5 16.5 19.5 26.5 29.5 34.5 39.5 42.5 49.5 53.5 58.5 61.5 68.5 71.5 76.5">Seq = 41 Ack = 24</tspan></text>
<text xml:space="preserve" transform="matrix(1 0 0 1.0008533 464 203.17322)" font-size="9" font-family="TahomaNormaali" fill="#ffb000"><tspan y="9" x=".5 6.5 11.5 16.5 19.5 26.5 29.5 34.5 39.5 42.5 49.5 53.5 58.5 61.5 68.5 71.5 76.5">Seq = 42 Ack = 25</tspan></text>
<text xml:space="preserve" transform="matrix(1 0 0 1.0008533 464 222.68985)" font-size="9" font-family="TahomaNormaali" fill="#ffb000"><tspan y="9" x=".5 6.5 11.5 16.5 19.5 26.5 29.5 34.5 39.5 42.5 49.5 53.5 58.5 61.5 68.5 71.5 76.5">Seq = 25 Ack = 42</tspan></text>
</g>
<g clip-path="url(#clip_8)">
</g>
</svg>
