<?xml version="1.0" encoding="UTF-8" standalone="no"?>
<!DOCTYPE svg PUBLIC "-//W3C//DTD SVG 1.1//EN" "http://www.w3.org/Graphics/SVG/1.1/DTD/svg11.dtd">
<!-- Generated by graphviz version 2.38.0 (20140413.2041)
 -->
<!-- Title: g Pages: 1 -->
<svg width="325pt" height="520pt" viewBox="0.00 0.00 325.00 520.00" xmlns="http://www.w3.org/2000/svg" xmlns:xlink="http://www.w3.org/1999/xlink">
<g id="graph0" class="graph" transform="scale(1 1) rotate(0) translate(4 516)">
<title>g</title>
<polygon fill="none" stroke="none" points="-4,4 -4,-516 321,-516 321,4 -4,4"/>
<!-- node0 -->
<g id="node1" class="node"><title>node0</title>
<polygon fill="#282828" stroke="black" points="8,-438 8,-508 134,-508 134,-438 8,-438"/>
<text text-anchor="start" x="42" y="-477.2" font-family="Times,serif" font-weight="bold" text-decoration="underline" font-size="16.00" fill="#ffb000">    OSI    </text>
<polygon fill="#ffc040" stroke="none" points="8,-376 8,-438 134,-438 134,-376 8,-376"/>
<polygon fill="none" stroke="black" points="8,-376 8,-438 134,-438 134,-376 8,-376"/>
<text text-anchor="start" x="12.5" y="-404.2" font-family="Times,serif" font-size="16.00">Application Layer</text>
<polygon fill="#ffc040" stroke="none" points="8,-314 8,-376 134,-376 134,-314 8,-314"/>
<polygon fill="none" stroke="black" points="8,-314 8,-376 134,-376 134,-314 8,-314"/>
<text text-anchor="start" x="11" y="-342.2" font-family="Times,serif" font-size="16.00">Presentation Layer</text>
<polygon fill="#ffc040" stroke="none" points="8,-252 8,-314 134,-314 134,-252 8,-252"/>
<polygon fill="none" stroke="black" points="8,-252 8,-314 134,-314 134,-252 8,-252"/>
<text text-anchor="start" x="26" y="-280.2" font-family="Times,serif" font-size="16.00">Session Layer</text>
<polygon fill="#cca333" stroke="none" points="8,-190 8,-252 134,-252 134,-190 8,-190"/>
<polygon fill="none" stroke="black" points="8,-190 8,-252 134,-252 134,-190 8,-190"/>
<text text-anchor="start" x="19.5" y="-218.2" font-family="Times,serif" font-size="16.00">Transport Layer</text>
<polygon fill="#ffb000" stroke="none" points="8,-128 8,-190 134,-190 134,-128 8,-128"/>
<polygon fill="none" stroke="black" points="8,-128 8,-190 134,-190 134,-128 8,-128"/>
<text text-anchor="start" x="22.5" y="-156.2" font-family="Times,serif" font-size="16.00">Network Layer</text>
<polygon fill="#ffd080" stroke="none" points="8,-66 8,-128 134,-128 134,-66 8,-66"/>
<polygon fill="none" stroke="black" points="8,-66 8,-128 134,-128 134,-66 8,-66"/>
<text text-anchor="start" x="18.5" y="-94.2" font-family="Times,serif" font-size="16.00">Data Link Layer</text>
<polygon fill="#ffd080" stroke="none" points="8,-4 8,-66 134,-66 134,-4 8,-4"/>
<polygon fill="none" stroke="black" points="8,-4 8,-66 134,-66 134,-4 8,-4"/>
<text text-anchor="start" x="23.5" y="-32.2" font-family="Times,serif" font-size="16.00">Physical Layer</text>
</g>
<!-- node1 -->
<g id="node2" class="node"><title>node1</title>
<polygon fill="#282828" stroke="black" points="186.5,-429 186.5,-499 309.5,-499 309.5,-429 186.5,-429"/>
<text text-anchor="start" x="207" y="-468.2" font-family="Times,serif" font-weight="bold" text-decoration="underline" font-size="16.00" fill="#ffb000">    TCP/IP    </text>
<polygon fill="#ffc040" stroke="none" points="186.5,-252 186.5,-429 309.5,-429 309.5,-252 186.5,-252"/>
<polygon fill="none" stroke="black" points="186.5,-252 186.5,-429 309.5,-429 309.5,-252 186.5,-252"/>
<text text-anchor="start" x="189.5" y="-337.6" font-family="Times,serif" font-size="16.00">Application Layer</text>
<polygon fill="#cca333" stroke="none" points="186.5,-190 186.5,-252 309.5,-252 309.5,-190 186.5,-190"/>
<polygon fill="none" stroke="black" points="186.5,-190 186.5,-252 309.5,-252 309.5,-190 186.5,-190"/>
<text text-anchor="start" x="196.5" y="-218.2" font-family="Times,serif" font-size="16.00">Transport Layer</text>
<polygon fill="#ffb000" stroke="none" points="186.5,-128 186.5,-190 309.5,-190 309.5,-128 186.5,-128"/>
<polygon fill="none" stroke="black" points="186.5,-128 186.5,-190 309.5,-190 309.5,-128 186.5,-128"/>
<text text-anchor="start" x="199.5" y="-156.2" font-family="Times,serif" font-size="16.00">Network Layer</text>
<polygon fill="#ffd080" stroke="none" points="186.5,-10 186.5,-128 309.5,-128 309.5,-10 186.5,-10"/>
<polygon fill="none" stroke="black" points="186.5,-10 186.5,-128 309.5,-128 309.5,-10 186.5,-10"/>
<text text-anchor="start" x="220" y="-75" font-family="Times,serif" font-size="16.00">Network</text>
<text text-anchor="start" x="205.5" y="-57" font-family="Times,serif" font-size="16.00">Access Layer</text>
</g>
<!-- node0&#45;&gt;node1 -->
<g id="0" class="edge"><title>node0:f1-&gt;node1:f1</title>
<path fill="none" stroke="black" d="M135,-407C168.04,-407 152.824,-354.188 175.684,-343.048"/>
<polygon fill="black" stroke="black" points="176.426,-346.468 185.5,-341 174.996,-339.616 176.426,-346.468"/>
</g>
<!-- node0&#45;&gt;node1 -->
<g id="0" class="edge"><title>node0:f2-&gt;node1:f1</title>
<path fill="none" stroke="black" d="M135,-345C153.645,-345 160.601,-342.257 175.228,-341.314"/>
<polygon fill="black" stroke="black" points="175.612,-344.804 185.5,-341 175.398,-337.807 175.612,-344.804"/>
</g>
<!-- node0&#45;&gt;node1 -->
<g id="0" class="edge"><title>node0:f3-&gt;node1:f1</title>
<path fill="none" stroke="black" d="M135,-283C165.174,-283 154.791,-328.203 175.46,-338.797"/>
<polygon fill="black" stroke="black" points="174.982,-342.275 185.5,-341 176.482,-335.438 174.982,-342.275"/>
</g>
<!-- node0&#45;&gt;node1 -->
<g id="1" class="edge"><title>node0:f4-&gt;node1:f2</title>
<path fill="none" stroke="black" d="M135,-221C153.587,-221 160.629,-221 175.248,-221"/>
<polygon fill="black" stroke="black" points="175.5,-224.5 185.5,-221 175.5,-217.5 175.5,-224.5"/>
</g>
<!-- node0&#45;&gt;node1 -->
<g id="2" class="edge"><title>node0:f5-&gt;node1:f3</title>
<path fill="none" stroke="black" d="M135,-159C153.587,-159 160.629,-159 175.248,-159"/>
<polygon fill="black" stroke="black" points="175.5,-162.5 185.5,-159 175.5,-155.5 175.5,-162.5"/>
</g>
<!-- node0&#45;&gt;node1 -->
<g id="3" class="edge"><title>node0:f6-&gt;node1:f4</title>
<path fill="none" stroke="black" d="M135,-97C156.654,-97 159.448,-77.0664 175.208,-70.8372"/>
<polygon fill="black" stroke="black" points="176.271,-74.2029 185.5,-69 175.041,-67.3119 176.271,-74.2029"/>
</g>
<!-- node0&#45;&gt;node1 -->
<g id="3" class="edge"><title>node0:f7-&gt;node1:f4</title>
<path fill="none" stroke="black" d="M135,-35C158.041,-35 158.84,-59.6554 175.278,-66.975"/>
<polygon fill="black" stroke="black" points="175.01,-70.4899 185.5,-69 176.371,-63.6234 175.01,-70.4899"/>
</g>
</g>
</svg>