<?xml version="1.0" encoding="windows-1252" standalone="no"?>
<svg xmlns="http://www.w3.org/2000/svg" xmlns:xlink="http://www.w3.org/1999/xlink" contentStyleType="text/css" height="402px" preserveAspectRatio="none" style="width:449px;height:402px;" version="1.1" viewBox="0 0 449 402" width="449px" zoomAndPan="magnify"><defs/><g><rect fill="none" height="402" style="stroke:none;stroke-width:1.0;" width="449" x="0" y="0"/><text fill="#FFB000" font-family="Verdana" font-size="22" font-weight="bold" lengthAdjust="spacing" textLength="247" x="96.5" y="35.4209">UDP State Diagram</text><g id="elem_idle"><rect fill="#282828" height="60.8906" style="stroke:#FFB000;stroke-width:1.0;" width="227" x="152.5" y="58.6094"/><text fill="#FFB000" font-family="Verdana" font-size="14" lengthAdjust="spacing" textLength="32" x="250" y="73.6045">IDLE</text><text fill="#FFB000" font-family="Verdana" font-size="14" lengthAdjust="spacing" textLength="4" x="264" y="89.9014"> </text><line style="stroke:#FFB000;stroke-width:1.0;" x1="153.5" x2="378.5" y1="95.2031" y2="95.2031"/><text fill="#FFB000" font-family="Verdana" font-size="14" lengthAdjust="spacing" textLength="215" x="158.5" y="112.1982">Awaiting datagram operation.</text></g><g id="elem_sending"><rect fill="#282828" height="60.8906" style="stroke:#FFB000;stroke-width:1.0;" width="158" x="12" y="196.6094"/><text fill="#FFB000" font-family="Verdana" font-size="14" lengthAdjust="spacing" textLength="127" x="27.5" y="211.6045">DATAGRAM_SENT</text><text fill="#FFB000" font-family="Verdana" font-size="14" lengthAdjust="spacing" textLength="4" x="89" y="227.9014"> </text><line style="stroke:#FFB000;stroke-width:1.0;" x1="13" x2="169" y1="233.2031" y2="233.2031"/><text fill="#FFB000" font-family="Verdana" font-size="14" lengthAdjust="spacing" textLength="146" x="18" y="250.1982">Packet transmitted.</text></g><g id="elem_receiving"><rect fill="#282828" height="60.8906" style="stroke:#FFB000;stroke-width:1.0;" width="176" x="205" y="196.6094"/><text fill="#FFB000" font-family="Verdana" font-size="14" lengthAdjust="spacing" textLength="162" x="212" y="211.6045">DATAGRAM_RECEIVED</text><text fill="#FFB000" font-family="Verdana" font-size="14" lengthAdjust="spacing" textLength="4" x="291" y="227.9014"> </text><line style="stroke:#FFB000;stroke-width:1.0;" x1="206" x2="380" y1="233.2031" y2="233.2031"/><text fill="#FFB000" font-family="Verdana" font-size="14" lengthAdjust="spacing" textLength="109" x="211" y="250.1982">Packet arrived.</text></g><g id="elem_error"><rect fill="#282828" height="60.8906" style="stroke:#FFB000;stroke-width:1.0;" width="150" x="218" y="334.6094"/><text fill="#FFB000" font-family="Verdana" font-size="14" lengthAdjust="spacing" textLength="103" x="241.5" y="349.6045">ERROR_STATE</text><text fill="#FFB000" font-family="Verdana" font-size="14" lengthAdjust="spacing" textLength="4" x="291" y="365.9014"> </text><line style="stroke:#FFB000;stroke-width:1.0;" x1="219" x2="367" y1="371.2031" y2="371.2031"/><text fill="#FFB000" font-family="Verdana" font-size="14" lengthAdjust="spacing" textLength="138" x="224" y="388.1982">Anomaly detected.</text></g><!--link idle to sending--><g id="link_idle_sending"><path codeLine="17" d="M152.266,105.3194 C127.197,114.2004 103.5183,128.0594 88,149.6094 C78.4465,162.8764 77.645,175.16 80.5555,190.467 " fill="none" id="idle-to-sending" style="stroke:#FFB000;stroke-width:1.0;"/><polygon fill="#FFB000" points="81.6763,196.3614,83.9247,186.7726,80.7423,191.4494,76.0655,188.267,81.6763,196.3614" style="stroke:#FFB000;stroke-width:1.0;"/><text fill="#FFB000" font-family="Verdana" font-size="13" lengthAdjust="spacing" textLength="57" x="89" y="162.6763">Transmit</text></g><!--link sending to idle--><g id="link_sending_idle"><path codeLine="19" d="M129.2,196.4224 C158.51,173.6444 194.0374,146.0352 223.2904,123.3012 " fill="none" id="sending-to-idle" style="stroke:#FFB000;stroke-width:1.0;"/><polygon fill="#FFB000" points="228.028,119.6194,218.4671,121.9837,224.08,122.6875,223.3762,128.3004,228.028,119.6194" style="stroke:#FFB000;stroke-width:1.0;"/><text fill="#FFB000" font-family="Verdana" font-size="13" lengthAdjust="spacing" textLength="34" x="189" y="162.6763">Done</text></g><!--link idle to receiving--><g id="link_idle_receiving"><path codeLine="18" d="M261.125,119.8974 C259.719,134.2014 259.402,151.4804 263,166.6094 C265.436,176.8514 267.1763,182.0001 271.9583,191.2531 " fill="none" id="idle-to-receiving" style="stroke:#FFB000;stroke-width:1.0;"/><polygon fill="#FFB000" points="274.713,196.5834,274.1344,186.7515,272.4174,192.1415,267.0274,190.4245,274.713,196.5834" style="stroke:#FFB000;stroke-width:1.0;"/><text fill="#FFB000" font-family="Verdana" font-size="13" lengthAdjust="spacing" textLength="36" x="264" y="162.6763">Await</text></g><!--link receiving to idle--><g id="link_receiving_idle"><path codeLine="20" d="M303.751,196.2714 C307.379,181.9554 309.499,164.6814 305,149.6094 C301.891,139.1944 299.6296,133.9081 293.6446,124.8931 " fill="none" id="receiving-to-idle" style="stroke:#FFB000;stroke-width:1.0;"/><polygon fill="#FFB000" points="290.326,119.8944,291.9714,129.6048,293.0915,124.06,298.6364,125.18,290.326,119.8944" style="stroke:#FFB000;stroke-width:1.0;"/><text fill="#FFB000" font-family="Verdana" font-size="13" lengthAdjust="spacing" textLength="66" x="308" y="162.6763">Processed</text></g><!--link sending to error--><g id="link_sending_error"><path codeLine="21" d="M134.831,257.6194 C168.597,280.3534 210.0969,308.2937 243.9289,331.0716 " fill="none" id="sending-to-error" style="stroke:#FFB000;stroke-width:1.0;"/><polygon fill="#FFB000" points="248.906,334.4225,243.6743,326.0781,244.7584,331.6301,239.2064,332.7142,248.906,334.4225" style="stroke:#FFB000;stroke-width:1.0;"/><text fill="#FFB000" font-family="Verdana" font-size="13" lengthAdjust="spacing" textLength="37" x="205" y="300.6763">Failed</text></g><!--link receiving to error--><g id="link_receiving_error"><path codeLine="22" d="M293,257.6194 C293,280.2744 293,305.4297 293,328.1874 " fill="none" id="receiving-to-error" style="stroke:#FFB000;stroke-width:1.0;"/><polygon fill="#FFB000" points="293,334.1874,297,325.1874,293,329.1874,289,325.1874,293,334.1874" style="stroke:#FFB000;stroke-width:1.0;"/><text fill="#FFB000" font-family="Verdana" font-size="13" lengthAdjust="spacing" textLength="70" x="294" y="300.6763">Corrupt/Err</text></g><!--link error to idle--><g id="link_error_idle"><path codeLine="23" d="M339.854,334.4492 C351.529,325.726 363.431,315.5567 373,304.6094 C405.492,267.4364 407.064,245.3174 399,196.6094 C395.396,174.8394 397.454,166.2824 383,149.6094 C372.626,137.6424 364.4663,130.7715 350.4993,122.7645 " fill="none" id="error-to-idle" style="stroke:#FFB000;stroke-width:1.0;"/><polygon fill="#FFB000" points="345.294,119.7804,351.1126,127.7267,349.6318,122.2671,355.0914,120.7863,345.294,119.7804" style="stroke:#FFB000;stroke-width:1.0;"/><text fill="#FFB000" font-family="Verdana" font-size="13" lengthAdjust="spacing" textLength="37" x="404" y="231.6763">Reset</text></g><!--SRC=[RP3BJiCm44Nt_egX-y0-2wIeDgWIZyW9h92gQJ8gXiIk9aCHglXtycmQYQtlETVNlf9tgWaAbWZh7R4I9nN1YquX4nG2xN3FM2iLTXzK2Ams-i6y-HLW0wviqPDAlj69ytieKNeOme4OnGL_hNxFeaxovDucZzlCFELZGqE-xCoJIh7u905Xz4tjHAZyrxLcRJQlHey-Kq7kk6X0PdTSsiRQPxlDyYIVbXDpu6ww3pLMFr2IjEHWgVvPKNHxNXT3FiwQi_dc6FeFK1FTfJqMWmwUr4nU92c7Wfg6oeKsp8hX3btLHajp2jU1-UiWDuPP3MSNlPOQaZy0]--></g></svg>