<?xml version="1.0" encoding="windows-1252" standalone="no"?>
<svg xmlns="http://www.w3.org/2000/svg" xmlns:xlink="http://www.w3.org/1999/xlink" contentStyleType="text/css" height="954px" preserveAspectRatio="none" style="width:898px;height:954px;" version="1.1" viewBox="0 0 898 954" width="898px" zoomAndPan="magnify"><defs/><g><rect fill="none" height="954" style="stroke:none;stroke-width:1.0;" width="898" x="0" y="0"/><text fill="#33FF33" font-family="Verdana" font-size="22" font-weight="bold" lengthAdjust="spacing" textLength="244" x="322.75" y="35.4209">TCP State Diagram</text><g id="elem_closed"><rect fill="#282828" height="60.8906" style="stroke:#33FF33;stroke-width:1.0;" width="203" x="346" y="58.6094"/><text fill="#33FF33" font-family="Verdana" font-size="14" lengthAdjust="spacing" textLength="58" x="418.5" y="73.6045">CLOSED</text><text fill="#33FF33" font-family="Verdana" font-size="14" lengthAdjust="spacing" textLength="4" x="445.5" y="89.9014"> </text><line style="stroke:#33FF33;stroke-width:1.0;" x1="347" x2="548" y1="95.2031" y2="95.2031"/><text fill="#33FF33" font-family="Verdana" font-size="14" lengthAdjust="spacing" textLength="191" x="352" y="112.1982">Idle state, no connections.</text></g><g id="elem_syn_sent"><rect fill="#282828" height="60.8906" style="stroke:#33FF33;stroke-width:1.0;" width="125" x="385" y="196.6094"/><text fill="#33FF33" font-family="Verdana" font-size="14" lengthAdjust="spacing" textLength="72" x="411.5" y="211.6045">SYN_SENT</text><text fill="#33FF33" font-family="Verdana" font-size="14" lengthAdjust="spacing" textLength="4" x="445.5" y="227.9014"> </text><line style="stroke:#33FF33;stroke-width:1.0;" x1="386" x2="509" y1="233.2031" y2="233.2031"/><text fill="#33FF33" font-family="Verdana" font-size="14" lengthAdjust="spacing" textLength="113" x="391" y="250.1982">Initial SYN sent.</text></g><g id="elem_syn_received"><rect fill="#282828" height="60.8906" style="stroke:#33FF33;stroke-width:1.0;" width="211" x="342" y="334.6094"/><text fill="#33FF33" font-family="Verdana" font-size="14" lengthAdjust="spacing" textLength="107" x="394" y="349.6045">SYN_RECEIVED</text><text fill="#33FF33" font-family="Verdana" font-size="14" lengthAdjust="spacing" textLength="4" x="445.5" y="365.9014"> </text><line style="stroke:#33FF33;stroke-width:1.0;" x1="343" x2="552" y1="371.2031" y2="371.2031"/><text fill="#33FF33" font-family="Verdana" font-size="14" lengthAdjust="spacing" textLength="199" x="348" y="388.1982">SYN received and ACK sent.</text></g><g id="elem_established"><rect fill="#282828" height="60.8906" style="stroke:#33FF33;stroke-width:1.0;" width="155" x="370" y="472.6094"/><text fill="#33FF33" font-family="Verdana" font-size="14" lengthAdjust="spacing" textLength="98" x="398.5" y="487.6045">ESTABLISHED</text><text fill="#33FF33" font-family="Verdana" font-size="14" lengthAdjust="spacing" textLength="4" x="445.5" y="503.9014"> </text><line style="stroke:#33FF33;stroke-width:1.0;" x1="371" x2="524" y1="509.2031" y2="509.2031"/><text fill="#33FF33" font-family="Verdana" font-size="14" lengthAdjust="spacing" textLength="143" x="376" y="526.1982">Data transfer state.</text></g><g id="elem_fin_wait_1"><rect fill="#282828" height="60.8906" style="stroke:#33FF33;stroke-width:1.0;" width="283" x="167" y="610.6094"/><text fill="#33FF33" font-family="Verdana" font-size="14" lengthAdjust="spacing" textLength="82" x="267.5" y="625.6045">FIN_WAIT_1</text><text fill="#33FF33" font-family="Verdana" font-size="14" lengthAdjust="spacing" textLength="4" x="306.5" y="641.9014"> </text><line style="stroke:#33FF33;stroke-width:1.0;" x1="168" x2="449" y1="647.2031" y2="647.2031"/><text fill="#33FF33" font-family="Verdana" font-size="14" lengthAdjust="spacing" textLength="271" x="173" y="664.1982">Initiated close, waiting for ACK or FIN.</text></g><g id="elem_fin_wait_2"><rect fill="#282828" height="60.8906" style="stroke:#33FF33;stroke-width:1.0;" width="181" x="180" y="748.6094"/><text fill="#33FF33" font-family="Verdana" font-size="14" lengthAdjust="spacing" textLength="81" x="230" y="763.6045">FIN_WAIT_2</text><text fill="#33FF33" font-family="Verdana" font-size="14" lengthAdjust="spacing" textLength="4" x="268.5" y="779.9014"> </text><line style="stroke:#33FF33;stroke-width:1.0;" x1="181" x2="360" y1="785.2031" y2="785.2031"/><text fill="#33FF33" font-family="Verdana" font-size="14" lengthAdjust="spacing" textLength="169" x="186" y="802.1982">Waiting for remote FIN.</text></g><g id="elem_time_wait"><rect fill="#282828" height="60.8906" style="stroke:#33FF33;stroke-width:1.0;" width="309" x="12" y="886.6094"/><text fill="#33FF33" font-family="Verdana" font-size="14" lengthAdjust="spacing" textLength="78" x="127.5" y="901.6045">TIME_WAIT</text><text fill="#33FF33" font-family="Verdana" font-size="14" lengthAdjust="spacing" textLength="4" x="164.5" y="917.9014"> </text><line style="stroke:#33FF33;stroke-width:1.0;" x1="13" x2="320" y1="923.2031" y2="923.2031"/><text fill="#33FF33" font-family="Verdana" font-size="14" lengthAdjust="spacing" textLength="297" x="18" y="940.1982">Waiting for lingering segments to expire.</text></g><g id="elem_close_wait"><rect fill="#282828" height="60.8906" style="stroke:#33FF33;stroke-width:1.0;" width="266" x="485.5" y="610.6094"/><text fill="#33FF33" font-family="Verdana" font-size="14" lengthAdjust="spacing" textLength="91" x="573" y="625.6045">CLOSE_WAIT</text><text fill="#33FF33" font-family="Verdana" font-size="14" lengthAdjust="spacing" textLength="4" x="616.5" y="641.9014"> </text><line style="stroke:#33FF33;stroke-width:1.0;" x1="486.5" x2="750.5" y1="647.2031" y2="647.2031"/><text fill="#33FF33" font-family="Verdana" font-size="14" lengthAdjust="spacing" textLength="254" x="491.5" y="664.1982">Received FIN, application will close.</text></g><g id="elem_last_ack"><rect fill="#282828" height="60.8906" style="stroke:#33FF33;stroke-width:1.0;" width="268" x="623.5" y="748.6094"/><text fill="#33FF33" font-family="Verdana" font-size="14" lengthAdjust="spacing" textLength="73" x="721" y="763.6045">LAST_ACK</text><text fill="#33FF33" font-family="Verdana" font-size="14" lengthAdjust="spacing" textLength="4" x="755.5" y="779.9014"> </text><line style="stroke:#33FF33;stroke-width:1.0;" x1="624.5" x2="890.5" y1="785.2031" y2="785.2031"/><text fill="#33FF33" font-family="Verdana" font-size="14" lengthAdjust="spacing" textLength="256" x="629.5" y="802.1982">Waiting for last ACK before closing.</text></g><!--link closed to syn_sent--><g id="link_closed_syn_sent"><path codeLine="32" d="M447.5,119.6194 C447.5,142.2744 447.5,167.4294 447.5,190.1874 " fill="none" id="closed-to-syn_sent" style="stroke:#33FF33;stroke-width:1.0;"/><polygon fill="#33FF33" points="447.5,196.1874,451.5,187.1874,447.5,191.1874,443.5,187.1874,447.5,196.1874" style="stroke:#33FF33;stroke-width:1.0;"/><text fill="#33FF33" font-family="Verdana" font-size="13" lengthAdjust="spacing" textLength="25" x="448.5" y="162.6763">SYN</text></g><!--link syn_sent to syn_received--><g id="link_syn_sent_syn_received"><path codeLine="33" d="M447.5,257.6194 C447.5,280.2744 447.5,305.4294 447.5,328.1874 " fill="none" id="syn_sent-to-syn_received" style="stroke:#33FF33;stroke-width:1.0;"/><polygon fill="#33FF33" points="447.5,334.1874,451.5,325.1874,447.5,329.1874,443.5,325.1874,447.5,334.1874" style="stroke:#33FF33;stroke-width:1.0;"/><text fill="#33FF33" font-family="Verdana" font-size="13" lengthAdjust="spacing" textLength="61" x="448.5" y="300.6763">SYN+ACK</text></g><!--link syn_received to established--><g id="link_syn_received_established"><path codeLine="34" d="M447.5,395.6194 C447.5,418.2744 447.5,443.4294 447.5,466.1874 " fill="none" id="syn_received-to-established" style="stroke:#33FF33;stroke-width:1.0;"/><polygon fill="#33FF33" points="447.5,472.1874,451.5,463.1874,447.5,467.1874,443.5,463.1874,447.5,472.1874" style="stroke:#33FF33;stroke-width:1.0;"/><text fill="#33FF33" font-family="Verdana" font-size="13" lengthAdjust="spacing" textLength="26" x="448.5" y="438.6763">ACK</text></g><!--link established to established--><g id="link_established_established"><path codeLine="35" d="M525.055,490.5014 C544.997,491.3034 560,495.5054 560,503.1094 C560,510.7134 550.9922,514.6743 531.0502,515.4763 " fill="none" id="established-to-established" style="stroke:#33FF33;stroke-width:1.0;"/><polygon fill="#33FF33" points="525.055,515.7174,534.2085,519.3525,530.051,515.5165,533.887,511.3589,525.055,515.7174" style="stroke:#33FF33;stroke-width:1.0;"/><text fill="#33FF33" font-family="Verdana" font-size="13" lengthAdjust="spacing" textLength="61" x="566" y="507.6763">Data/ACK</text></g><!--link established to fin_wait_1--><g id="link_established_fin_wait_1"><path codeLine="36" d="M417.339,533.6194 C394.184,556.2744 366.6307,583.2333 343.3707,605.9913 " fill="none" id="established-to-fin_wait_1" style="stroke:#33FF33;stroke-width:1.0;"/><polygon fill="#33FF33" points="339.082,610.1874,348.3124,606.7523,342.6559,606.6906,342.7176,601.0341,339.082,610.1874" style="stroke:#33FF33;stroke-width:1.0;"/><text fill="#33FF33" font-family="Verdana" font-size="13" lengthAdjust="spacing" textLength="19" x="387.5" y="576.6763">FIN</text></g><!--link fin_wait_1 to fin_wait_2--><g id="link_fin_wait_1_fin_wait_2"><path codeLine="37" d="M300.255,671.6194 C293.924,694.2744 286.8334,719.6507 280.4754,742.4087 " fill="none" id="fin_wait_1-to-fin_wait_2" style="stroke:#33FF33;stroke-width:1.0;"/><polygon fill="#33FF33" points="278.861,748.1874,285.1351,740.5956,280.2064,743.3718,277.4302,738.443,278.861,748.1874" style="stroke:#33FF33;stroke-width:1.0;"/><text fill="#33FF33" font-family="Verdana" font-size="13" lengthAdjust="spacing" textLength="26" x="293.5" y="714.6763">ACK</text></g><!--link fin_wait_2 to time_wait--><g id="link_fin_wait_2_time_wait"><path codeLine="38" d="M247.934,809.6194 C230.609,832.2744 210.4297,858.6635 193.0267,881.4212 " fill="none" id="fin_wait_2-to-time_wait" style="stroke:#33FF33;stroke-width:1.0;"/><polygon fill="#33FF33" points="189.382,886.1874,198.0265,881.468,192.4193,882.2156,191.6716,876.6084,189.382,886.1874" style="stroke:#33FF33;stroke-width:1.0;"/><text fill="#33FF33" font-family="Verdana" font-size="13" lengthAdjust="spacing" textLength="19" x="226.5" y="852.6763">FIN</text></g><!--link time_wait to closed--><g id="link_time_wait_closed"><path codeLine="39" d="M147.665,886.6069 C132.431,859.8864 113.5,818.8804 113.5,780.1094 C113.5,226.1094 113.5,226.1094 113.5,226.1094 C113.5,175.3184 241.8252,135.6607 340.0902,112.4137 " fill="none" id="time_wait-to-closed" style="stroke:#33FF33;stroke-width:1.0;"/><polygon fill="#33FF33" points="345.929,111.0324,336.2499,109.2118,341.0633,112.1835,338.0916,116.9969,345.929,111.0324" style="stroke:#33FF33;stroke-width:1.0;"/><text fill="#33FF33" font-family="Verdana" font-size="13" lengthAdjust="spacing" textLength="56" x="114.5" y="507.6763">TIMEOUT</text></g><!--link established to close_wait--><g id="link_established_close_wait"><path codeLine="40" d="M484.604,533.6194 C513.189,556.3534 547.8371,583.9096 576.4771,606.6876 " fill="none" id="established-to-close_wait" style="stroke:#33FF33;stroke-width:1.0;"/><polygon fill="#33FF33" points="581.173,610.4224,576.619,601.6896,577.2597,607.3101,571.6393,607.9508,581.173,610.4224" style="stroke:#33FF33;stroke-width:1.0;"/><text fill="#33FF33" font-family="Verdana" font-size="13" lengthAdjust="spacing" textLength="19" x="544.5" y="576.6763">FIN</text></g><!--link close_wait to last_ack--><g id="link_close_wait_last_ack"><path codeLine="41" d="M648.661,671.6194 C671.816,694.2744 699.3693,721.2333 722.6293,743.9913 " fill="none" id="close_wait-to-last_ack" style="stroke:#33FF33;stroke-width:1.0;"/><polygon fill="#33FF33" points="726.918,748.1874,723.2824,739.0341,723.3441,744.6906,717.6876,744.7523,726.918,748.1874" style="stroke:#33FF33;stroke-width:1.0;"/><text fill="#33FF33" font-family="Verdana" font-size="13" lengthAdjust="spacing" textLength="19" x="697.5" y="714.6763">FIN</text></g><!--link last_ack to closed--><g id="link_last_ack_closed"><path codeLine="42" d="M774.07,748.6034 C787.602,721.7124 804.5,680.4554 804.5,642.1094 C804.5,226.1094 804.5,226.1094 804.5,226.1094 C804.5,171.1434 660.7184,131.5636 555.1984,109.6266 " fill="none" id="last_ack-to-closed" style="stroke:#33FF33;stroke-width:1.0;"/><polygon fill="#33FF33" points="549.324,108.4054,557.3214,114.1535,554.2193,109.4231,558.9498,106.321,549.324,108.4054" style="stroke:#33FF33;stroke-width:1.0;"/><text fill="#33FF33" font-family="Verdana" font-size="13" lengthAdjust="spacing" textLength="26" x="805.5" y="438.6763">ACK</text></g><!--SRC=[RLBBRjim4BppAxQvrcuH7tq8uDegAjHrYaX9KA20GCjhXor56IIH1uByUtOfcQRbdAJTsPbz33_v1smGQkl7EujeX5TU8vJptr1uwH4MIkwiR8Her_-mzd0nNruNsUAlkG3feDQjmmsyYdn3BCUC4PWMwjOOgbQjSL_4M-GMVrPLaQtAdkrUJENGUEORvPNKG1N0gI7h9fjd-LtioqoBDQh7q9rPCPHc0xFvppEPh2XdtvPvyIEg80syriez1965z1AybSPjqNQxfFJl-Qgwd-LbTTcpjyfKJrBvwZBExqaed6G4Z2YpWsrhmpJq8OKF1IT3mGa9tYTyYqrBLWpuPVuh2m8ztQi60t_0rlI3bYE7kuQEGgKjuFDUsPC5Wx6fODZae7XpE2zDCGAvtsjLIpOOdfJMNMsgjfmLPKMBzrfQEb_9-lzmDag7ywoHGWmoXB6GwD_MU7nrV2XJVY0YXWSiUX_mpoGeJj9SbvezvPuYpPnNy7Fu-b5PulkKho6In0a-wVia2SQFFdNqOynel_KKsDxhs_AiVU9AnqyIZCTBTsWCJyHfh7S0]--></g></svg>